<svg width="860" height="1000" viewBox="0 0 860 1000" fill="none" xmlns="http://www.w3.org/2000/svg">
<path fill-rule="evenodd" clip-rule="evenodd" d="M431.219 0C587.514 110.615 686.069 136.905 854.802 81.8452C875.712 370.04 851.829 824.405 430.723 1000C9.12369 812.996 -22.7317 419.643 9.12503 89.7817C211.212 139.385 299.813 106.647 431.219 0ZM834.891 399.306C844.846 272.817 842.357 179.563 834.891 101.19C676.108 151.29 596.216 133.873 431.219 23.3135C294.166 133.225 206.727 147.817 27.0383 111.607C20.2858 201.402 19.4131 250.912 21.0653 338.294L421.756 384.425L410.308 349.702L834.891 399.306ZM485.966 568.948L781.133 611.607C700.995 814.484 614.222 891.209 430.723 977.182C227.135 881.944 118.625 770.337 54.9125 547.619L495.921 604.663L485.966 568.948ZM630.812 409.226L613.155 463.381H556.016L602.243 496.85L584.586 551.004L630.812 517.535L677.039 551.004L659.382 496.85L705.608 463.381H648.469L630.812 409.226ZM211.804 455.408L229.126 402.282L246.448 455.408H302.501L257.153 488.242L274.474 541.368L229.126 508.534L183.777 541.368L201.099 488.242L155.75 455.408H211.804Z" fill="#BC002D"/>
<path d="M281.188 268.865V281.594H301.942C302.695 281.594 303.503 281.89 304.364 282.481C305.279 283.072 305.737 283.931 305.737 285.059V297.628C305.737 298.702 305.279 299.561 304.364 300.206C303.503 300.797 302.695 301.092 301.942 301.092H281.188V314.305C281.188 315.003 280.892 315.729 280.3 316.48C279.708 317.286 278.9 317.689 277.877 317.689H258.254C257.177 317.689 256.343 317.286 255.751 316.48C255.212 315.729 254.943 315.003 254.943 314.305V301.092H232.817C232.063 301.092 231.283 300.797 230.475 300.206C229.668 299.615 229.264 298.755 229.264 297.628V285.059C229.264 283.931 229.668 283.072 230.475 282.481C231.283 281.89 232.063 281.594 232.817 281.594H254.943V268.865H232.817C232.063 268.865 231.283 268.569 230.475 267.978C229.668 267.388 229.264 266.528 229.264 265.4V252.832C229.264 251.704 229.668 250.844 230.475 250.253C231.283 249.663 232.063 249.367 232.817 249.367H237.904L234.755 237.846C234.54 237.094 234.62 236.342 234.997 235.59C235.374 234.838 236.101 234.462 237.178 234.462H253.409C254.486 234.462 255.401 234.865 256.155 235.671C256.962 236.423 257.447 237.148 257.608 237.846L260.757 249.367H273.92L277.07 237.846C277.231 237.148 277.716 236.423 278.523 235.671C279.331 234.865 280.246 234.462 281.269 234.462H297.581C298.658 234.462 299.357 234.838 299.68 235.59C300.057 236.342 300.165 237.094 300.003 237.846L296.854 249.367H301.942C302.695 249.367 303.503 249.663 304.364 250.253C305.279 250.844 305.737 251.704 305.737 252.832V265.4C305.737 266.474 305.279 267.334 304.364 267.978C303.503 268.569 302.695 268.865 301.942 268.865H281.188ZM328.509 176.211C329.263 176.211 330.071 176.507 330.932 177.097C331.847 177.688 332.305 178.548 332.305 179.676V192.244C332.305 193.319 331.847 194.178 330.932 194.822C330.071 195.413 329.263 195.709 328.509 195.709H279.331V211.42H328.752C329.505 211.42 330.286 211.715 331.093 212.306C331.901 212.897 332.305 213.756 332.305 214.884V314.305C332.305 315.003 332.009 315.729 331.416 316.48C330.824 317.286 330.017 317.689 328.994 317.689H312.601C311.578 317.689 310.771 317.286 310.178 316.48C309.586 315.729 309.29 315.003 309.29 314.305V230.917H223.773V314.305C223.773 315.003 223.476 315.729 222.884 316.48C222.292 317.286 221.485 317.689 220.462 317.689H204.069C203.046 317.689 202.238 317.286 201.646 316.48C201.054 315.729 200.758 315.003 200.758 314.305V214.884C200.758 213.756 201.162 212.897 201.969 212.306C202.777 211.715 203.557 211.42 204.311 211.42H256.316V195.709H204.311C203.557 195.709 202.777 195.413 201.969 194.822C201.162 194.232 200.758 193.372 200.758 192.244V179.676C200.758 178.548 201.162 177.688 201.969 177.097C202.777 176.507 203.557 176.211 204.311 176.211H256.316V172.263C256.316 171.565 256.612 170.84 257.204 170.088C257.85 169.282 258.685 168.88 259.708 168.88H276.02C277.043 168.88 277.85 169.282 278.442 170.088C279.035 170.84 279.331 171.565 279.331 172.263V176.211H328.509Z" fill="#BC002D"/>
<path d="M618.465 169.96C619.38 169.96 620.107 170.309 620.645 171.007C621.183 171.706 621.453 172.377 621.453 173.022V192.116C621.453 192.707 621.183 193.379 620.645 194.131C620.107 194.829 619.38 195.151 618.465 195.097H600.78C599.865 195.151 599.138 194.829 598.599 194.131C598.061 193.379 597.792 192.707 597.792 192.116V173.022C597.792 172.377 598.061 171.706 598.599 171.007C599.138 170.309 599.865 169.96 600.78 169.96H618.465ZM547.644 171.652C548.398 171.652 549.205 171.974 550.067 172.619C550.982 173.21 551.44 174.042 551.44 175.116V191.714C551.44 192.788 550.982 193.647 550.067 194.292C549.205 194.883 548.398 195.178 547.644 195.178H504.199C503.445 195.178 502.665 194.883 501.857 194.292C501.05 193.701 500.646 192.841 500.646 191.714V175.116C500.646 173.988 501.05 173.129 501.857 172.538C502.665 171.947 503.445 171.652 504.199 171.652H547.644ZM577.765 284.286C578.519 284.286 579.326 284.609 580.188 285.253C581.103 285.844 581.561 286.677 581.561 287.751V304.348C581.561 305.422 581.103 306.255 580.188 306.846C579.326 307.49 578.519 307.812 577.765 307.812H498.789C498.035 307.812 497.254 307.517 496.447 306.926C495.639 306.335 495.235 305.476 495.235 304.348V287.751C495.235 286.623 495.639 285.763 496.447 285.173C497.254 284.582 498.035 284.286 498.789 284.286H503.068V244.083C503.068 243.385 503.365 242.659 503.957 241.908C504.603 241.102 505.437 240.699 506.46 240.699H521.965C523.041 240.699 523.849 241.102 524.387 241.908C524.979 242.659 525.276 243.385 525.276 244.083V284.286H531.736V227.405H500.161C499.408 227.405 498.627 227.11 497.82 226.519C497.012 225.928 496.608 225.069 496.608 223.941V207.344C496.608 206.216 497.012 205.356 497.82 204.766C498.627 204.175 499.408 203.879 500.161 203.879H567.025L559.192 175.116C558.761 173.559 558.815 172.297 559.353 171.33C559.892 170.363 560.78 169.88 562.018 169.88H578.33C579.569 169.88 580.672 170.175 581.641 170.766C582.61 171.357 583.31 172.189 583.741 173.263L592.22 203.879H624.36C625.113 203.879 625.921 204.202 626.782 204.846C627.697 205.437 628.155 206.27 628.155 207.344V223.941C628.155 225.015 627.697 225.874 626.782 226.519C625.921 227.11 625.113 227.405 624.36 227.405H598.761L615.154 286.462H622.987C624.225 286.462 625.113 286.73 625.652 287.267C626.244 287.805 626.54 288.691 626.54 289.926V306.523C626.54 307.597 626.136 308.43 625.329 309.021C624.521 309.665 623.741 309.988 622.987 309.988H600.295C599.219 309.988 598.115 309.585 596.984 308.779C595.908 308.027 595.235 307.302 594.966 306.604L573.404 227.405H555.558V243.035H572.112C572.866 243.035 573.674 243.358 574.535 244.002C575.45 244.593 575.908 245.426 575.908 246.5V263.097C575.908 264.171 575.45 265.031 574.535 265.675C573.674 266.266 572.866 266.561 572.112 266.561H555.558V284.286H577.765Z" fill="#BC002D"/>
<path d="M311.577 784.189C311.577 784.882 311.284 785.602 310.699 786.348C310.167 787.148 309.369 787.548 308.305 787.548H288.909C287.845 787.548 287.02 787.148 286.435 786.348C285.902 785.602 285.636 784.882 285.636 784.189V767.239H261.771C261.079 767.239 260.334 766.972 259.536 766.439C258.791 765.853 258.418 765.027 258.418 763.961V745.571C258.418 744.558 258.791 743.785 259.536 743.252C260.334 742.666 261.079 742.372 261.771 742.372H285.636V702.874L232.398 771.716C230.961 773.262 230.083 773.982 229.764 773.875C229.498 773.822 229.365 773.502 229.365 772.916V739.014C229.365 738.641 229.391 738.321 229.445 738.055C229.498 737.735 229.524 737.495 229.524 737.335C229.578 737.122 229.711 736.856 229.924 736.536C230.19 736.163 230.376 735.869 230.482 735.656C230.642 735.443 230.961 735.017 231.44 734.377C231.972 733.737 232.398 733.204 232.717 732.778L270.551 684.724H235.271C234.58 684.724 233.835 684.458 233.036 683.925C232.291 683.338 231.919 682.539 231.919 681.526V663.136C231.919 662.07 232.291 661.271 233.036 660.738C233.835 660.151 234.58 659.858 235.271 659.858H285.636V643.227C285.636 642.534 285.929 641.815 286.514 641.069C287.1 640.269 287.924 639.869 288.989 639.869H308.305C309.316 639.869 310.114 640.269 310.699 641.069C311.284 641.815 311.577 642.534 311.577 643.227V659.858H361.703C362.394 659.858 363.139 660.151 363.938 660.738C364.789 661.271 365.215 662.07 365.215 663.136V681.526C365.215 682.539 364.789 683.338 363.938 683.925C363.139 684.458 362.394 684.724 361.703 684.724H326.423L364.257 732.778C364.576 733.204 364.975 733.737 365.454 734.377C365.986 735.017 366.306 735.443 366.412 735.656C366.572 735.869 366.758 736.163 366.971 736.536C367.237 736.856 367.37 737.122 367.37 737.335C367.423 737.495 367.476 737.735 367.529 738.055C367.583 738.321 367.609 738.641 367.609 739.014V772.916C367.609 774.302 366.758 774.088 365.055 772.276C365.002 772.223 364.949 772.143 364.895 772.036C364.736 771.876 364.629 771.77 364.576 771.716L311.577 703.194V742.372H335.203C335.948 742.372 336.72 742.666 337.518 743.252C338.369 743.785 338.795 744.558 338.795 745.571V763.961C338.795 765.027 338.369 765.853 337.518 766.439C336.72 766.972 335.948 767.239 335.203 767.239H311.577V784.189Z" fill="#BC002D"/>
<path d="M547.688 729.545C548.433 729.545 549.232 729.864 550.083 730.504C550.988 731.09 551.44 731.917 551.44 732.983V746.895C551.44 747.961 550.988 748.787 550.083 749.374C549.232 750.013 548.433 750.333 547.688 750.333H462.833C462.088 750.333 461.317 750.04 460.519 749.454C459.72 748.867 459.321 748.014 459.321 746.895V732.983C459.321 731.863 459.72 731.01 460.519 730.424C461.317 729.838 462.088 729.545 462.833 729.545H481.59L469.378 712.194H462.833C462.088 712.194 461.317 711.901 460.519 711.315C459.72 710.728 459.321 709.876 459.321 708.756V694.844C459.321 693.724 459.72 692.872 460.519 692.285C461.317 691.699 462.088 691.406 462.833 691.406H495.004V673.016C495.004 672.27 495.27 671.523 495.802 670.777C496.388 670.031 497.213 669.658 498.277 669.658H510.569C511.633 669.658 512.431 670.031 512.963 670.777C513.549 671.523 513.841 672.27 513.841 673.016V691.406H547.688C548.433 691.406 549.232 691.726 550.083 692.365C550.988 692.952 551.44 693.778 551.44 694.844V708.756C551.44 709.822 550.988 710.675 550.083 711.315C549.232 711.901 548.433 712.194 547.688 712.194H539.946L527.734 729.545H547.688ZM502.347 729.545H506.897L519.109 712.194H490.215L502.347 729.545Z" fill="#BC002D"/>
<path d="M537.942 755.45C538.9 755.45 539.698 755.743 540.336 756.33C541.028 756.916 541.374 757.636 541.374 758.489V819.495C541.374 820.454 540.975 821.227 540.177 821.814C539.379 822.347 538.634 822.613 537.942 822.613H472.017C471.325 822.613 470.58 822.347 469.782 821.814C469.037 821.227 468.664 820.454 468.664 819.495V758.489C468.664 757.636 468.984 756.916 469.622 756.33C470.314 755.743 471.112 755.45 472.017 755.45H537.942ZM520.542 802.224V775.886H489.699V802.224H520.542Z" fill="#BC002D"/>
<path d="M601.608 731.783H610.946C611.691 731.783 612.489 732.103 613.341 732.743C614.245 733.329 614.698 734.155 614.698 735.221V796.548C614.698 797.614 614.245 798.467 613.341 799.106C612.489 799.693 611.691 799.986 610.946 799.986H580.935V820.534C580.935 821.227 580.642 821.947 580.057 822.693C579.471 823.493 578.673 823.892 577.662 823.892H560.821C559.757 823.892 558.932 823.493 558.346 822.693C557.814 821.947 557.548 821.227 557.548 820.534V682.93C557.548 682.237 557.841 681.518 558.426 680.772C559.012 679.972 559.836 679.572 560.901 679.572H623.238C624.249 679.572 624.888 679.999 625.154 680.852C625.42 681.704 625.367 682.397 624.994 682.93L601.608 731.783ZM580.935 776.639H591.311V755.13H580.935V776.639ZM580.935 726.027L592.189 705.478H580.935V726.027Z" fill="#BC002D"/>
</svg>
