<svg width="1800" height="1200" viewBox="0 0 1800 1200" fill="none" xmlns="http://www.w3.org/2000/svg">
<rect width="1800" height="1200" fill="#BC002D"/>
<path fill-rule="evenodd" clip-rule="evenodd" d="M1493.7 682.93C1495 682.93 1496.38 683.401 1497.83 684.342C1499.28 685.282 1500 686.605 1500 688.307V718.952C1500 720.743 1499.28 722.111 1497.83 723.052C1496.38 723.993 1495 724.463 1493.7 724.463H1393.85C1391.98 724.463 1390.56 723.834 1389.58 722.581C1388.6 721.325 1388.11 720.071 1388.11 718.818V653.226H1375.51L1322.02 719.355C1318.93 723.118 1315.99 725 1313.19 725H1267.68C1266.09 725 1265 724.641 1264.39 723.925C1263.78 723.207 1263.57 722.446 1263.76 721.64C1263.95 720.834 1264.32 720.071 1264.88 719.355L1319.63 653.226H1288.27C1286.49 653.226 1285.12 652.6 1284.13 651.344C1283.16 650.09 1282.67 648.836 1282.67 647.581V570.699H1268.8C1266.93 570.699 1265.51 570.073 1264.53 568.817C1263.55 567.564 1263.06 566.353 1263.06 565.188V507.124C1263.06 505.96 1263.55 504.75 1264.53 503.495C1265.51 502.241 1266.93 501.613 1268.8 501.613H1288.83L1281.96 483.064C1280.47 478.944 1282.39 476.882 1287.71 476.882H1316.55C1318.51 476.882 1320.31 477.509 1321.94 478.764C1323.58 480.019 1324.58 481.182 1324.96 482.257L1332.1 501.613H1359.54V480.645C1359.54 479.482 1360.03 478.248 1361.01 476.948C1362 475.651 1363.42 475 1365.29 475H1398.61C1400.39 475 1401.79 475.651 1402.81 476.948C1403.84 478.248 1404.36 479.482 1404.36 480.645V501.613H1432.08L1439.36 482.257C1439.74 481.182 1440.72 480.019 1442.31 478.764C1443.89 477.509 1445.71 476.882 1447.77 476.882H1476.61C1481.94 476.882 1483.85 478.944 1482.36 483.064L1475.49 501.613H1494.12C1495.98 501.613 1497.41 502.241 1498.39 503.495C1499.37 504.75 1499.86 505.96 1499.86 507.124V565.188C1499.86 566.353 1499.37 567.564 1498.39 568.817C1497.41 570.073 1495.98 570.699 1494.12 570.699H1480.12V647.581C1480.12 648.836 1479.62 650.09 1478.64 651.344C1477.66 652.6 1476.29 653.226 1474.51 653.226H1432.78V682.93H1493.7ZM1457.43 539.651H1305.49V556.317H1457.43V539.651ZM1437.68 617.204V591.936H1325.1V617.204H1437.68ZM1243.9 569.892L1139.44 526.479L1034.13 569.892C1033.2 570.521 1031.98 570.61 1030.49 570.162C1028.99 569.714 1028.25 568.639 1028.25 566.935V533.065C1028.25 531.274 1028.92 529.616 1030.28 528.092C1031.63 526.569 1032.92 525.584 1034.13 525.134L1136.78 482.393C1137.52 482.123 1138.27 481.989 1139.02 481.989C1139.76 481.989 1140.51 482.123 1141.26 482.393L1243.9 525.134C1245.11 525.584 1246.4 526.569 1247.75 528.092C1249.11 529.616 1249.78 531.274 1249.78 533.065V566.935C1249.78 568.639 1249.04 569.714 1247.54 570.162C1246.05 570.61 1244.83 570.521 1243.9 569.892ZM1007.58 645.516H990.687L1009.73 707.915C1010.29 709.091 1010.37 710.505 1009.97 712.158C1009.56 713.815 1008.55 714.642 1006.94 714.642H980.245C978.627 714.642 977.133 713.868 975.758 712.319C974.383 710.772 973.494 709.304 973.09 707.915L954.657 645.516H952.968L934.534 707.915C934.128 709.304 933.241 710.772 931.866 712.319C930.491 713.868 927.817 714.642 926.2 714.642H900.567C899.031 714.642 898.06 713.815 897.656 712.158C897.25 710.505 897.332 709.091 897.899 707.915L916.939 645.516H899.559C898.426 645.516 897.255 644.902 896.042 643.673C894.83 642.447 894.223 640.765 894.223 638.628V614.37C894.223 612.128 894.83 610.421 896.042 609.245C897.255 608.072 898.426 607.483 899.559 607.483H938.999V567.623H899.559C898.426 567.623 897.255 567.01 896.042 565.781C894.83 564.556 894.223 562.874 894.223 560.736V537.569C894.223 535.327 894.83 533.62 896.042 532.445C897.255 531.27 898.426 530.683 899.559 530.683H910.471L898.829 493.266C898.263 492.2 898.162 490.812 898.526 489.102C898.89 487.396 899.879 486.54 901.497 486.54H931.236C932.771 486.54 934.226 487.288 935.602 488.782C936.975 490.279 937.906 491.772 938.391 493.266L950.155 530.683H957.023L968.665 493.266C969.15 491.772 970.079 490.279 971.454 488.782C972.828 487.288 974.323 486.54 975.942 486.54H1005.56C1007.18 486.54 1008.19 487.396 1008.59 489.102C1008.99 490.812 1008.91 492.2 1008.35 493.266L996.585 530.683H1007.58C1008.79 530.683 1010.05 531.27 1011.34 532.445C1012.63 533.62 1013.28 535.327 1013.28 537.569V560.736C1013.28 562.874 1012.63 564.556 1011.34 565.781C1010.05 567.01 1008.79 567.623 1007.58 567.623H970.201V607.483H1007.58C1008.79 607.483 1010.05 608.072 1011.34 609.245C1012.63 610.421 1013.28 612.128 1013.28 614.37V638.628C1013.28 640.765 1012.63 642.447 1011.34 643.673C1010.05 644.902 1008.79 645.516 1007.58 645.516ZM880.883 522.449H877.519L877.242 635.075L882.167 634.393C885.069 634.052 887.422 637.691 887.422 642.519V661.258C887.422 666.087 885.069 670.279 882.167 670.62L877.266 671.299L877.519 713.385C877.519 714.548 877.004 715.779 875.978 717.078C874.949 718.375 873.549 719.024 871.777 719.024H853.622C851.754 719.024 850.332 718.375 849.351 717.078C848.371 715.779 847.88 714.548 847.88 713.385L847.771 675.388L790.625 683.31C787.722 683.651 784.349 680.013 784.349 675.183V656.445C784.349 651.615 787.722 647.424 790.625 647.083L794.447 646.553L794.769 522.449H791.164C789.856 522.449 788.504 521.959 787.104 520.972C785.704 519.988 785.003 518.555 785.003 516.676V489.015C785.003 487.135 785.704 485.704 787.104 484.719C788.504 483.734 789.856 483.242 791.164 483.242H880.883C882.189 483.242 883.615 483.757 885.154 484.785C886.695 485.816 887.465 487.226 887.465 489.015V516.676C887.465 518.467 886.695 519.877 885.154 520.905C883.615 521.935 882.189 522.449 880.883 522.449ZM847.88 522.449H823.187V538.631H847.88V522.449ZM847.88 573.473H823.187V589.655H847.88V573.473ZM823.187 624.497L822.929 642.605L847.797 639.158L847.88 624.497H823.187ZM766.57 580.328H722.178L750.606 678.849H764.188C766.336 678.849 767.9 679.299 768.88 680.194C769.86 681.09 770.351 682.569 770.351 684.629V712.317C770.351 714.108 769.65 715.519 768.25 716.551C766.85 717.58 765.496 718.096 764.188 718.096H724.839C722.97 718.096 721.08 717.446 719.168 716.148C717.253 714.848 716.062 713.615 715.596 712.451L678.207 580.328H647.259V606.403H675.966C677.273 606.403 678.697 606.919 680.238 607.948C681.779 608.98 682.549 610.391 682.549 612.182V639.87C682.549 641.664 681.779 643.075 680.238 644.104C678.697 645.136 677.273 645.65 675.966 645.65H647.259V675.22H685.769C687.075 675.22 688.5 675.737 690.04 676.765C691.581 677.797 692.351 679.208 692.351 680.999V708.687C692.351 710.48 691.581 711.891 690.04 712.921C688.5 713.951 687.075 714.467 685.769 714.467H548.814C547.506 714.467 546.154 713.974 544.754 712.989C543.354 712.002 542.653 710.569 542.653 708.687V680.999C542.653 679.118 543.354 677.686 544.754 676.699C546.154 675.713 547.506 675.22 548.814 675.22H556.237V608.15C556.237 606.987 556.773 605.754 557.847 604.454C558.919 603.156 560.343 602.505 562.118 602.505H589.004C590.871 602.505 592.296 603.156 593.276 604.454C594.256 605.754 594.746 606.987 594.746 608.15V675.22H605.949V580.328H551.195C549.887 580.328 548.534 579.837 547.134 578.849C545.734 577.864 545.034 576.43 545.034 574.548V546.86C545.034 544.978 545.734 543.545 547.134 542.559C548.534 541.574 549.887 541.081 551.195 541.081H667.145L653.561 493.096C652.813 490.498 652.907 488.392 653.841 486.779C654.773 485.166 656.313 484.36 658.462 484.36H686.75C688.896 484.36 690.81 484.853 692.49 485.839C694.171 486.825 695.384 488.214 696.131 490.005L710.835 541.081H766.57C767.876 541.081 769.3 541.597 770.841 542.626C772.381 543.657 773.152 545.068 773.152 546.86V574.548C773.152 576.342 772.381 577.753 770.841 578.782C769.3 579.813 767.876 580.328 766.57 580.328ZM756.347 526.429H725.679C724.09 526.52 722.83 525.959 721.898 524.75C720.964 523.54 720.498 522.443 720.498 521.457V489.602C720.498 488.526 720.964 487.407 721.898 486.241C722.83 485.078 724.09 484.494 725.679 484.494H756.347C757.933 484.494 759.194 485.078 760.128 486.241C761.06 487.407 761.528 488.526 761.528 489.602V521.457C761.528 522.443 761.06 523.54 760.128 524.75C759.194 525.959 757.933 526.52 756.347 526.429ZM633.536 526.564H558.197C556.889 526.564 555.536 526.073 554.135 525.086C552.735 524.1 552.036 522.666 552.036 520.784V493.096C552.036 491.214 552.735 489.782 554.135 488.796C555.536 487.81 556.889 487.317 558.197 487.317H633.536C634.842 487.317 636.266 487.834 637.807 488.862C639.347 489.894 640.118 491.305 640.118 493.096V520.784C640.118 522.578 639.347 523.989 637.807 525.018C636.266 526.05 634.842 526.564 633.536 526.564ZM522.376 724.414H493.949C492.174 724.414 490.774 723.762 489.748 722.464C488.719 721.164 488.208 719.932 488.208 718.769V579.655H339.91V718.769C339.91 719.932 339.395 721.164 338.369 722.464C337.341 723.762 335.94 724.414 334.168 724.414H305.741C303.966 724.414 302.566 723.762 301.54 722.464C300.511 721.164 300 719.932 300 718.769V573.876V552.908C300 551.026 300.7 549.594 302.1 548.607C303.5 547.622 304.853 547.129 306.161 547.129H396.344V520.918H306.161C304.853 520.918 303.5 520.427 302.1 519.441C300.7 518.456 300 517.021 300 515.139V494.171C300 492.289 300.7 490.857 302.1 489.871C303.5 488.885 304.853 488.392 306.161 488.392H396.344V481.806C396.344 480.642 396.88 479.41 397.954 478.11C399.027 476.812 400.451 476.161 402.225 476.161H430.513C432.285 476.161 433.686 476.812 434.714 478.11C435.74 479.41 436.254 480.642 436.254 481.806V488.392H521.536C522.842 488.392 524.266 488.885 525.807 489.871C527.347 490.857 528.118 492.289 528.118 494.171V515.139C528.118 516.933 527.347 518.345 525.807 519.373C524.266 520.404 522.842 520.918 521.536 520.918H436.254V547.129H521.956C523.262 547.129 524.616 547.622 526.017 548.607C527.417 549.594 528.118 551.026 528.118 552.908V573.876V718.769C528.118 719.932 527.603 721.164 526.577 722.464C525.548 723.762 524.148 724.414 522.376 724.414ZM355.594 610.435H364.416L358.954 591.214C358.58 589.961 358.721 588.707 359.375 587.451C360.027 586.198 361.287 585.569 363.155 585.569H391.303C393.169 585.569 394.779 586.221 396.134 587.519C397.487 588.819 398.304 590.051 398.584 591.214L404.046 610.435H426.872L432.333 591.214C432.613 590.051 433.453 588.819 434.853 587.519C436.254 586.221 437.84 585.569 439.615 585.569H467.902C469.769 585.569 471.005 586.198 471.614 587.451C472.219 588.707 472.383 589.961 472.103 591.214L466.642 610.435H475.464C476.77 610.435 478.195 610.929 479.735 611.914C481.275 612.9 482.045 614.333 482.045 616.214V637.182C482.045 638.976 481.275 640.388 479.735 641.416C478.195 642.447 476.77 642.962 475.464 642.962H439.475V664.199H475.464C476.77 664.199 478.195 664.692 479.735 665.677C481.275 666.665 482.045 668.097 482.045 669.978V690.946C482.045 692.74 481.275 694.151 479.735 695.18C478.195 696.211 476.77 696.726 475.464 696.726H439.475V718.769C439.475 719.932 438.96 721.164 437.934 722.464C436.906 723.762 435.505 724.414 433.733 724.414H399.705C397.836 724.414 396.414 723.762 395.433 722.464C394.454 721.164 393.964 719.932 393.964 718.769V696.726H355.594C354.285 696.726 352.934 696.235 351.533 695.247C350.133 694.262 349.432 692.828 349.432 690.946V669.978C349.432 668.097 350.133 666.665 351.533 665.677C352.934 664.692 354.285 664.199 355.594 664.199H393.964V642.962H355.594C354.285 642.962 352.934 642.47 351.533 641.484C350.133 640.499 349.432 639.064 349.432 637.182V616.214C349.432 614.333 350.133 612.9 351.533 611.914C352.934 610.929 354.285 610.435 355.594 610.435ZM1192.51 594.489H1089.16C1087.86 594.489 1086.43 593.975 1084.89 592.943C1083.35 591.914 1082.58 590.503 1082.58 588.709V561.021C1082.58 559.14 1083.35 557.708 1084.89 556.721C1086.43 555.735 1087.86 555.242 1089.16 555.242H1192.51C1193.82 555.242 1195.17 555.735 1196.57 556.721C1197.97 557.708 1198.67 559.14 1198.67 561.021V588.709C1198.67 590.503 1197.97 591.914 1196.57 592.943C1195.17 593.975 1193.82 594.489 1192.51 594.489ZM1054.01 611.693H1156.52H1226.82C1228.31 611.693 1229.69 613.016 1230.95 615.659C1232.21 618.302 1232.84 620.52 1232.84 622.311V715.86C1232.84 717.473 1232.14 718.75 1230.74 719.691C1229.34 720.632 1228.03 721.102 1226.82 721.102H1054.01C1052.8 721.102 1051.52 720.632 1050.16 719.691C1048.81 718.75 1048.13 717.473 1048.13 715.86V616.802C1048.13 615.368 1048.72 614.159 1049.88 613.172C1051.05 612.187 1052.43 611.693 1054.01 611.693ZM1089.02 682.527H1191.81V649.865H1089.02V682.527Z" fill="white"/>
</svg>
