<svg width="25" height="25" viewBox="0 0 25 25" fill="none" xmlns="http://www.w3.org/2000/svg">
<mask id="mask0_56930_24340" style="mask-type:alpha" maskUnits="userSpaceOnUse" x="0" y="0" width="25" height="25">
<rect x="0.293457" y="0.525635" width="24" height="24" fill="#D9D9D9"/>
</mask>
<g mask="url(#mask0_56930_24340)">
<path d="M16.2935 19.5256C15.7435 19.5256 15.2726 19.3298 14.881 18.9381C14.4893 18.5465 14.2935 18.0756 14.2935 17.5256V7.52563C14.2935 6.97563 14.4893 6.5048 14.881 6.11313C15.2726 5.72147 15.7435 5.52563 16.2935 5.52563C16.8435 5.52563 17.3143 5.72147 17.706 6.11313C18.0976 6.5048 18.2935 6.97563 18.2935 7.52563V17.5256C18.2935 18.0756 18.0976 18.5465 17.706 18.9381C17.3143 19.3298 16.8435 19.5256 16.2935 19.5256ZM8.29346 19.5256C7.74346 19.5256 7.27262 19.3298 6.88096 18.9381C6.48929 18.5465 6.29346 18.0756 6.29346 17.5256V7.52563C6.29346 6.97563 6.48929 6.5048 6.88096 6.11313C7.27262 5.72147 7.74346 5.52563 8.29346 5.52563C8.84346 5.52563 9.31429 5.72147 9.70596 6.11313C10.0976 6.5048 10.2935 6.97563 10.2935 7.52563V17.5256C10.2935 18.0756 10.0976 18.5465 9.70596 18.9381C9.31429 19.3298 8.84346 19.5256 8.29346 19.5256Z" fill="#1C1B1F"/>
</g>
</svg>
