<svg width="1200" height="1200" viewBox="0 0 1200 1200" fill="none" xmlns="http://www.w3.org/2000/svg">
<rect width="1200" height="1200" fill="#BC002D"/>
<g clip-path="url(#clip0_14_89)">
<mask id="mask0_14_89" style="mask-type:luminance" maskUnits="userSpaceOnUse" x="240" y="240" width="720" height="720">
<path d="M960 600C960 401.178 798.823 240 600 240C401.178 240 240 401.178 240 600C240 798.823 401.178 960 600 960C798.823 960 960 798.823 960 600Z" fill="white"/>
</mask>
<g mask="url(#mask0_14_89)">
<path d="M960 600C960 401.177 798.823 240 600 240C401.177 240 240 401.177 240 600C240 798.823 401.177 960 600 960C798.823 960 960 798.823 960 600Z" fill="white"/>
<path d="M600 1617.36C896.246 1617.36 1136.4 1377.21 1136.4 1080.96C1136.4 784.714 896.246 544.56 600 544.56C303.755 544.56 63.6001 784.714 63.6001 1080.96C63.6001 1377.21 303.755 1617.36 600 1617.36Z" stroke="#BC002D" stroke-width="60"/>
<path d="M942.72 1080.96C942.72 1231.46 902.811 1366.72 839.427 1463.71C775.917 1560.88 690.673 1617.36 599.64 1617.36C508.608 1617.36 423.363 1560.88 359.853 1463.71C296.469 1366.72 256.56 1231.46 256.56 1080.96C256.56 930.457 296.469 795.196 359.853 698.211C423.363 601.034 508.608 544.56 599.64 544.56C690.673 544.56 775.917 601.034 839.427 698.211C902.811 795.196 942.72 930.457 942.72 1080.96Z" stroke="#BC002D" stroke-width="60"/>
<path d="M749.04 1080.96C749.04 1233.51 730.062 1370.78 699.904 1469.2C684.783 1518.53 667.218 1556.89 648.71 1582.44C629.849 1608.47 612.988 1617.36 599.64 1617.36C586.292 1617.36 569.431 1608.47 550.571 1582.44C532.062 1556.89 514.497 1518.53 499.377 1469.2C469.218 1370.78 450.24 1233.51 450.24 1080.96C450.24 928.404 469.218 791.136 499.377 692.723C514.497 643.384 532.062 605.028 550.571 579.484C569.431 553.452 586.292 544.56 599.64 544.56C612.988 544.56 629.849 553.452 648.71 579.484C667.218 605.028 684.783 643.384 699.904 692.723C730.062 791.136 749.04 928.404 749.04 1080.96Z" stroke="#BC002D" stroke-width="60"/>
<path d="M600 564.72C659.647 564.72 708 516.367 708 456.72C708 397.073 659.647 348.72 600 348.72C540.353 348.72 492 397.073 492 456.72C492 516.367 540.353 564.72 600 564.72Z" fill="#BC002D"/>
</g>
</g>
<defs>
<clipPath id="clip0_14_89">
<rect width="720" height="720" fill="white" transform="translate(240 240)"/>
</clipPath>
</defs>
</svg>
