<svg width="1800" height="1200" viewBox="0 0 1800 1200" fill="none" xmlns="http://www.w3.org/2000/svg">
<path d="M0 0H1800V1200H0V0Z" fill="#CC0000"/>
<path d="M350 125.889L364.843 171.57L366.639 177.098H372.451H420.484L381.625 205.331L376.923 208.748L378.719 214.276L393.562 259.957L354.702 231.724L350 228.308L345.298 231.724L306.438 259.957L321.281 214.276L323.077 208.748L318.375 205.331L279.516 177.098H327.549H333.361L335.157 171.57L350 125.889Z" stroke="#FFD700" stroke-width="16"/>
<path fill-rule="evenodd" clip-rule="evenodd" d="M200.041 453.106C198.628 390.137 233.578 345.406 271.442 321.427C279.065 316.599 287.108 313.619 295.908 309.912C327.014 296.805 373.898 296.588 405.255 309.912C448.508 328.29 478.334 360.58 493.631 407.043C496.183 414.794 496.692 423.379 498.625 431.576C499.711 436.185 498.639 441.804 499.623 446.096C500.748 450.999 499.091 463.031 498.125 467.125C496.832 472.611 497.566 477.074 496.128 482.145C493.269 492.23 489.94 502.002 486.142 510.684C471.217 544.809 445.135 571.833 411.247 586.787C403.781 590.082 396.624 591.608 388.279 594.298C373.419 599.086 342.955 602.397 324.867 597.802C316.006 595.552 306.533 594.143 298.404 590.793C256.086 573.353 226.962 545.02 209.529 502.673C205.538 492.981 204.191 482.085 201.539 471.13C200.533 466.974 201.931 456.153 200.041 453.106ZM221.013 451.604C222.456 453.88 222.006 461.694 222.01 464.622C222.177 464.622 222.343 464.622 222.51 464.622C225.715 461.372 229.685 459.295 233.494 456.61C249.046 445.651 265.829 436.845 285.423 429.574C293.009 426.759 301.378 425.21 309.389 423.065C312.494 422.234 317.422 423.022 318.875 420.561C312.587 415.724 309.476 397.361 312.884 387.016C316.995 374.538 334.558 355.304 354.825 359.98C373.064 364.187 382.776 373.391 387.28 391.522C388.211 395.269 388.931 401.023 387.779 405.541C386.192 411.77 382.573 416.262 380.789 421.564C388.319 422.213 396.374 424.431 402.759 426.57C408.916 428.633 414.44 429.168 420.234 431.576C433.933 437.27 447.223 443.529 459.179 451.103C465.51 455.113 471.01 461.137 477.654 464.622C477.654 463.454 477.654 462.285 477.654 461.117C479.033 458.986 477.531 454.551 478.153 451.604C479.294 446.206 477.582 437.713 477.155 432.077C475.255 407.006 459.649 377.785 446.198 363.985C431.632 349.042 415.752 337.099 394.769 328.436C369.039 317.814 328.5 319 303.897 329.438C257.936 348.938 221.747 387.092 221.013 451.604ZM227.503 490.156C229.419 492.748 229.648 496.54 230.999 499.669C232.792 503.827 235.224 508.357 237.489 512.186C237.656 512.186 237.822 512.186 237.989 512.186C239.012 507.927 241.642 504.197 243.48 500.671C248.566 490.92 252.905 481.787 258.959 473.134C262.047 468.719 268.06 464.246 269.944 459.114C269.611 459.114 269.278 459.114 268.945 459.114C264.617 463.072 257.993 464.95 252.968 468.126C246.766 472.046 241.229 477.32 235.492 481.644C232.593 483.829 228.004 485.668 227.503 490.156ZM252.469 534.216C255.949 536.518 257.691 540.766 260.957 543.228C267.198 547.934 272.744 552.825 279.431 557.247C280.879 558.205 287.196 563.393 288.418 562.255C290.468 558.744 288.907 552.587 289.916 548.235C291.414 538.223 292.912 528.207 294.41 518.194C297.811 504.929 299.704 491.31 303.897 478.641C305.72 473.13 307.539 467.188 309.888 461.618C311.507 457.78 314.196 453.829 315.381 449.601C315.048 449.601 314.715 449.601 314.382 449.601C311.918 452.003 308.252 453.099 305.395 455.108C301.575 457.794 298.189 461.259 294.41 464.121C291.887 466.031 289.849 469.067 287.918 471.631C284.673 475.944 280.085 479.653 276.934 484.148C271.282 492.211 267.173 500.565 262.455 509.682C258.867 516.615 253.268 525.181 252.469 534.216ZM390.276 572.267C390.569 559.754 388.45 544.421 385.782 533.715C383.881 526.088 384.353 519.021 382.287 511.686C377.643 495.204 373.512 478.855 367.308 464.622C364.173 457.429 357.337 440.809 348.335 440.589C345.663 443.527 342.165 445.788 339.847 449.101C332.498 459.596 328.83 472.182 324.368 485.651C316.556 509.229 309.832 542.317 308.889 571.767C309.43 572.222 308.931 571.728 309.389 572.267C313.711 572.862 317.912 574.68 321.871 575.773C329.131 577.774 336.75 578.098 345.339 578.276C347.502 578.443 349.667 578.61 351.829 578.777C357.489 577.592 364.072 578.609 369.805 577.275C376.606 575.692 383.597 573.186 390.276 572.267ZM383.784 450.102C389.02 455.905 391.247 468.446 394.27 476.638C398.495 488.083 401.068 501.569 404.257 514.189C404.922 519.028 405.587 523.87 406.253 528.709C408.715 538.94 410.382 551.249 410.747 562.755C411.08 562.755 411.413 562.755 411.746 562.755C415.386 559.389 420.647 557.618 424.728 554.744C429.422 551.437 433.236 546.626 437.709 543.228C440.813 540.871 446.335 537.002 447.197 532.714C445.042 529.89 444.672 525.685 443.202 522.199C439.873 515.191 436.545 508.18 433.216 501.171C424.882 487.419 415.743 475.612 404.755 464.622C400.106 459.971 395.166 456.059 389.277 452.605C387.631 451.64 385.735 449.217 383.784 450.102ZM428.722 459.114C433.382 462.337 436.432 468.457 439.707 473.134C447.063 483.633 457.99 499.199 461.676 512.687C462.078 512.176 461.853 512.55 462.175 511.686C465.468 508.958 471.665 493.736 472.161 488.154C468.472 485.73 465.703 481.74 462.175 479.141C454.914 473.792 447.596 469.506 439.707 464.622C437.314 463.14 431.378 458.127 428.722 459.114Z" fill="#FFD700"/>
</svg>
