<svg width="603" height="706" viewBox="0 0 603 706" fill="none" xmlns="http://www.w3.org/2000/svg">
<path fill-rule="evenodd" clip-rule="evenodd" d="M538.623 360.312C538.623 525.242 432.554 658.944 301.712 658.944C170.87 658.944 64.8008 525.242 64.8008 360.312C64.8008 195.383 170.87 61.6808 301.712 61.6808C432.554 61.6808 538.623 195.383 538.623 360.312Z" fill="#750E0E"/>
<path d="M241.988 188.66L301.995 662.99M301.995 662.99L367.629 188.472M301.995 662.99L145.845 267.743M301.995 662.99L457.868 267.638M301.995 662.99L72.2575 475.771M301.995 662.99L530.316 481.82M301.995 662.99L72 522.96M301.995 662.99V173M301.995 662.99L532 522.949M301.995 662.99L522.134 430.818M301.995 662.99L486.95 325.138M301.995 662.99L414.382 220.638M507.345 378.208L302.005 662.99L95.2283 376.86M302.005 663L81.846 430.818M117.05 325.138L301.985 662.99L189.617 220.638" stroke="#F70101" stroke-width="11" stroke-linecap="round"/>
<path d="M310.5 651.5C387.82 651.5 442 643.32 442 566C442 488.68 379.32 426 302 426C224.68 426 162 488.68 162 566C162 643.32 233.18 651.5 310.5 651.5Z" fill="#F70101"/>
<path fill-rule="evenodd" clip-rule="evenodd" d="M100.81 371.395L100.436 392.442L5 379.499L5.7479 360.067L6.86992 345.328L12.1041 309.039L23.3208 261.465L34.0701 234.063L46.1749 208.918L63.2338 182.621L81.2738 159.871L107.119 135.186L133.198 114.094L154.603 100.508L160.071 101.291L165.119 106.403L217.09 80.9354L250.5 71L264.134 90.4711L255.92 126.987L217.09 143.246L186.477 164.661L157.968 191.832L153.481 197.727L158.716 203.392L157.594 208.089L148.294 218.267L136.61 235.123L117.962 271.045L108.381 305.538L103.053 337.223L100.81 371.395Z" fill="#FFD700"/>
<path d="M100.436 392.442L5 379.499L9.43474 426.615C27.4089 494.725 60.2754 542.765 136.964 598.157C236.061 655.51 274.405 672.176 382.466 698.157L472.6 615.804C317.231 577.569 156.778 520.511 117 449L100.436 392.442Z" fill="#FFD700"/>
<path fill-rule="evenodd" clip-rule="evenodd" d="M501.5 371L504 404.5L596.098 380.48L595.35 361.048L594.228 346.308L590.5 309.5L580 262.5L570 235.5L558.5 209.5L542 183L522.5 160L498 136L471 115L448 101L443 102.5L435.979 107.383L384.009 81.9157L341.5 71L326.5 87.5L331 121L384.009 144.226L414.621 165.641L445.5 192L450 197L445.5 204L448 207.5L456.5 218L468 235.5L485 272L492.717 306.519L498.045 338.204L501.5 371Z" fill="#FFD700"/>
<path d="M504 404.5L596.098 380.48L591.663 427.595C573.689 495.706 540.823 543.745 464.134 599.137C365.037 656.49 326.693 673.157 218.632 699.137L128.498 616.784C283.867 578.549 443.358 519.177 483.137 447.667L504 404.5Z" fill="#FFD700"/>
<path fill-rule="evenodd" clip-rule="evenodd" d="M530.811 194.136L521.049 194.504L514.856 185.662L514.48 173.872L525.93 174.978L532.687 184.004L530.811 194.136Z" fill="#6F3F15"/>
<path fill-rule="evenodd" clip-rule="evenodd" d="M542.073 213.478L532.687 211.82L525.554 199.478L534.564 200.583L536.816 189.715L544.702 203.162L542.073 213.478Z" fill="#6F3F15"/>
<path fill-rule="evenodd" clip-rule="evenodd" d="M542.637 229.874L537.004 218.268L545.266 221.031L549.395 206.662L556.34 224.715L553.147 234.11L542.637 229.874Z" fill="#6F3F15"/>
<path fill-rule="evenodd" clip-rule="evenodd" d="M563.473 255.848L553.711 253.821L546.39 238.531L556.716 240.926L560.657 231.9L567.226 245.348L563.473 255.848Z" fill="#6F3F15"/>
<path fill-rule="evenodd" clip-rule="evenodd" d="M443.884 105.094L440.174 102.988L443.809 99.6937C446.07 97.6436 450.373 98.9582 453.006 100.523C560.608 164.448 595.165 252.656 602.438 377.658L595.165 379.179C590.354 267.485 563.228 175.648 451.129 103.378C449.758 102.494 447.399 101.585 446.249 102.733L443.884 105.094Z" fill="#6F3F15"/>
<path fill-rule="evenodd" clip-rule="evenodd" d="M448.094 197.212L450.483 199.979L448.357 202.347C447.236 203.595 447.65 206.121 448.826 207.32C491.998 251.343 508.608 314.948 507.552 389.824L499.997 393.543C500.286 327.892 490.847 262.286 444.884 208.334C443.488 206.695 442.644 203.618 444.04 201.978L448.094 197.212Z" fill="#6F3F15"/>
<path fill-rule="evenodd" clip-rule="evenodd" d="M569.706 278.792L559.568 274.555L555.439 259.818L564.637 264.608L570.646 253.187L574.586 270.134L569.706 278.792Z" fill="#6F3F15"/>
<path fill-rule="evenodd" clip-rule="evenodd" d="M574.963 299.424L564.449 294.819L560.884 280.634L571.018 285.424L576.651 274.924L580.592 288.924L574.963 299.424Z" fill="#6F3F15"/>
<path fill-rule="evenodd" clip-rule="evenodd" d="M578.527 319.135L568.578 313.609L565.765 301.267L576.651 307.714L583.22 296.845L584.345 311.214L578.527 319.135Z" fill="#6F3F15"/>
<path fill-rule="evenodd" clip-rule="evenodd" d="M579.655 340.504L571.394 334.976L569.894 320.978L578.339 327.056L585.849 316.925L587.161 330.74L579.655 340.504Z" fill="#6F3F15"/>
<path fill-rule="evenodd" clip-rule="evenodd" d="M583.408 364.821L572.71 360.215L571.394 341.792L579.84 348.609L588.85 336.821L590.354 355.609L583.408 364.821Z" fill="#6F3F15"/>
<path fill-rule="evenodd" clip-rule="evenodd" d="M551.845 388.285L535.453 373.616L535.544 352.108L553.563 364.819L566.14 348.239L567.8 378.386L551.845 388.285ZM552.813 382.39L547.026 377.078L562.526 358.325L563.743 376.102L552.813 382.39ZM550.578 366.777L544.026 375.118L540.034 371.773L539.627 359.305L550.578 366.777ZM552.813 357.266L535.919 346.213L532.353 320.976L551.499 332.949L562.386 318.581L565.577 340.686L552.813 357.266ZM551.921 351.97L544.413 346.443L558.96 328.298L560.274 341.654L551.921 351.97ZM538.406 342.943L537.468 326.825L547.041 332.812L540.284 344.14L538.406 342.943ZM552.625 325.397L531.602 313.423L527.66 293.896L546.431 304.949L556.755 288.37L560.696 308.817L552.625 325.397ZM551.358 319.18L543.005 314.758L553.517 298.456L555.957 310.706L551.358 319.18ZM543.193 305.548L538.313 313.008L536.436 312.179L532.588 299.653L543.193 305.548ZM527.097 288.186L522.217 271.79L539.674 278.975L548.683 262.211L555.065 279.896L546.243 298.501L527.097 288.186ZM544.882 292.284L536.905 288.139L546.666 271.099L550.232 281.416L544.882 292.284ZM536.905 280.403L533.151 287.219L530.523 285.745L525.924 275.981L536.905 280.403ZM537.421 271.79L519.401 266.264L514.146 249.316L530.851 256.317L539.674 237.526L546.243 255.395L537.421 271.79ZM535.684 267.83L528.74 265.757L537.937 247.52L541.503 256.178L535.684 267.83ZM529.021 257.928L526.346 264.975L523.203 264.099L519.918 254.336L529.021 257.928Z" fill="#6F3F15"/>
<path fill-rule="evenodd" clip-rule="evenodd" d="M513.465 356.553L512.057 355.724L511.588 346.974L517.594 351.671L513.465 356.553ZM521.536 366.777L510.837 359.593L509.617 342.368L519.19 350.197L529.045 338.039L530.359 355.816L521.536 366.777ZM527.074 354.434L520.504 362.54L515.154 359.408L526.417 345.132L527.074 354.434ZM520.035 343.105L509.242 335.921L505.018 315.105L516.468 322.105L525.666 310.96L528.576 331.315L520.035 343.105ZM511.682 335.184L521.912 319.618L525.666 329.842L518.252 339.237L511.682 335.184ZM509.523 329.842L508.209 319.802L515.061 323.671L510.744 330.671L509.523 329.842ZM514.122 311.144L508.585 307.736L517.501 292.907L520.41 301.012L514.122 311.144ZM516.375 314.828L502.672 306.999L499.481 290.328L512.621 296.867L520.035 284.065L524.071 301.288L516.375 314.828ZM509.617 299.446L506.332 306.262L504.268 305.249L502.109 295.302L509.617 299.446ZM515.061 277.525L509.711 287.657L506.708 277.985L512.621 268.222L515.061 277.525ZM510.274 292.17L498.637 283.512L495.07 271.814L505.488 275.775L513.371 261.959L518.158 276.972L510.274 292.17ZM500.044 282.406L497.98 275.683L504.174 277.985L507.552 287.841L500.044 282.406ZM492.067 266.288L487.75 252.656L498.449 255.511L503.048 241.879L510.744 256.248L503.517 271.446L492.067 266.288ZM502.86 266.38L500.091 257.307L502.86 248.143L507.365 255.88L502.86 266.38ZM490.659 256.801L497.541 258.724L500.795 267.485L493.663 265.09L490.659 256.801Z" fill="#6F3F15"/>
<path fill-rule="evenodd" clip-rule="evenodd" d="M521.613 167.056L515.231 169.267C463.55 119.335 408.857 88.2398 355.674 76.1332L362.378 71.2648C433.358 91.907 483.175 126.269 521.613 167.056Z" fill="#6F3F15"/>
<path fill-rule="evenodd" clip-rule="evenodd" d="M507.63 182.991C457.686 130.762 400.725 97.6743 344.274 85.2363L350.618 80.1711C408.827 97.0153 462.936 128.444 506.128 169.359L507.63 182.991Z" fill="#6F3F15"/>
<path fill-rule="evenodd" clip-rule="evenodd" d="M524.333 210.914L520.767 223.256L507.253 217.914L499.932 206.861L500.87 199.493C459.522 147.279 400.875 112.166 335 94.8301L337 91.2941L339.067 90.1263C412 105.094 472.567 156.045 504.249 194.335L516.075 195.992L524.333 210.914ZM502.887 206.584L503.638 198.018L510.677 198.847L518.561 211.742L517.528 216.531L507.486 213.215L502.887 206.584Z" fill="#6F3F15"/>
<path fill-rule="evenodd" clip-rule="evenodd" d="M503.544 220.676L521 228.597L527.799 215.17L536.58 232.65L529.072 250.15L504.67 236.703C496.925 218.703 482.302 196.558 469.324 182.774C433.514 144.74 388.498 120.966 339.067 107.076L335 101C390 112.187 436.389 142.615 465.044 171.357C481.923 188.287 493.159 203.609 503.544 220.676ZM507.345 231.959L503.872 223.577L519.546 230.67L516.542 236.749L507.345 231.959ZM520.484 238.775L527.523 224.499L532.215 233.433L528.086 242.736L520.484 238.775Z" fill="#6F3F15"/>
<path fill-rule="evenodd" clip-rule="evenodd" d="M500.305 236.104L495.612 249.92L484.162 246.604C450.845 193.149 404.36 149.232 343 129.195L341 124.037C389.5 135.5 436.611 169.65 481.347 231.683L483.787 223.762C446.659 167.94 393.5 135.5 341 117.674L339.067 112.187C397.5 127 453.313 163.479 487.729 221.551L494.486 224.499L500.305 236.104ZM487.823 243.105L483.036 235.92L486.04 226.986L490.92 228.736L495.425 236.933L492.797 243.934L487.823 243.105Z" fill="#6F3F15"/>
<path fill-rule="evenodd" clip-rule="evenodd" d="M83.9339 167.176L91.3156 168.406C142.996 118.474 192.817 88.3728 246 76.2662L241.4 71.3845C170.42 92.0267 122.372 126.389 83.9339 167.176Z" fill="#6F3F15"/>
<path fill-rule="evenodd" clip-rule="evenodd" d="M96.9179 183.111C146.862 130.882 201.549 97.7759 258 85.3379L252 80.3358C193.792 97.18 141.612 128.564 98.4194 169.479L96.9179 183.111Z" fill="#6F3F15"/>
<path fill-rule="evenodd" clip-rule="evenodd" d="M160.665 105.214L164.375 103.108L160.74 99.8135C158.479 97.7634 154.176 99.0779 151.543 100.642C45.5893 156.98 4.02637 256 0 378.686L9.6345 382.25C9.6345 278.912 41.3214 175.768 153.42 103.498C154.791 102.613 157.15 101.704 158.3 102.853L160.665 105.214Z" fill="#6F3F15"/>
<path fill-rule="evenodd" clip-rule="evenodd" d="M80.2134 211.034L83.7798 223.376L97.2945 218.034L104.615 206.981L103.677 199.612C145.025 147.399 197.153 112.166 263.028 94.8301L263.962 90.6955L262.214 89.2996C169.168 118.704 131.98 156.165 100.298 194.454L88.4723 196.112L80.2134 211.034ZM101.66 206.703L100.909 198.137L93.8697 198.966L85.9861 211.861L87.0187 216.651L97.0607 213.335L101.66 206.703Z" fill="#6F3F15"/>
<path fill-rule="evenodd" clip-rule="evenodd" d="M101.003 220.796L83.546 228.717L76.7475 215.29L67.9665 232.77L75.4748 250.27L99.8764 236.822C107.621 218.823 122.244 196.678 135.222 182.894C171.032 144.86 210.831 120.966 260.263 107.076L261.388 102.091C202.945 117.518 168.157 142.734 139.502 171.477C122.624 188.407 111.387 203.728 101.003 220.796ZM97.2015 232.079L100.674 223.697L85.0007 230.789L88.0041 236.868L97.2015 232.079ZM84.0625 238.895L77.0235 224.618L72.3309 233.553L76.4602 242.855L84.0625 238.895Z" fill="#6F3F15"/>
<path fill-rule="evenodd" clip-rule="evenodd" d="M104.241 236.224L108.934 250.04L120.384 246.724C130.745 230.1 141.871 214.387 154.129 200.024C154.873 199.152 155.621 198.284 156.374 197.422C183.087 166.827 214.163 142.622 255.282 129.195L256.408 124.037C211.672 136.945 167.936 169.77 123.199 231.803L120.759 223.881C157.888 168.06 204.72 137.136 257.869 117.674L259.108 112.187C201.161 131.933 151.233 163.598 116.817 221.671L110.06 224.618L104.241 236.224ZM116.723 243.224L121.51 236.04L118.507 227.105L113.626 228.855L109.121 237.053L111.749 244.053L116.723 243.224Z" fill="#6F3F15"/>
<path fill-rule="evenodd" clip-rule="evenodd" d="M73.7371 194.256L83.4978 194.624L89.6923 185.782L90.0676 173.992L78.6177 175.097L71.8603 184.124L73.7371 194.256Z" fill="#6F3F15"/>
<path fill-rule="evenodd" clip-rule="evenodd" d="M62.4748 213.598L71.8603 211.94L78.9929 199.598L69.9831 200.703L67.7307 189.834L59.8471 203.282L62.4748 213.598Z" fill="#6F3F15"/>
<path fill-rule="evenodd" clip-rule="evenodd" d="M61.9119 229.993L67.543 218.388L59.2838 221.151L55.1546 206.782L48.2096 224.835L51.4002 234.23L61.9119 229.993Z" fill="#6F3F15"/>
<path fill-rule="evenodd" clip-rule="evenodd" d="M41.0766 255.967L50.8373 253.941L58.1576 238.651L47.8339 241.046L43.8923 232.019L37.3226 245.467L41.0766 255.967Z" fill="#6F3F15"/>
<path fill-rule="evenodd" clip-rule="evenodd" d="M34.8431 278.912L44.9792 274.675L49.1088 259.938L39.9113 264.727L33.9046 253.306L29.9629 270.254L34.8431 278.912Z" fill="#6F3F15"/>
<path fill-rule="evenodd" clip-rule="evenodd" d="M29.5873 299.544L40.099 294.939L43.6653 280.754L33.5293 285.544L27.8981 275.044L23.9562 289.044L29.5873 299.544Z" fill="#6F3F15"/>
<path fill-rule="evenodd" clip-rule="evenodd" d="M26.021 319.255L35.9694 313.729L38.7851 301.386L27.8981 307.834L21.3284 296.965L20.2022 311.334L26.021 319.255Z" fill="#6F3F15"/>
<path fill-rule="evenodd" clip-rule="evenodd" d="M24.8947 340.623L33.154 335.098L34.6555 321.097L26.2086 327.175L18.7007 317.044L17.3868 330.861L24.8947 340.623Z" fill="#6F3F15"/>
<path fill-rule="evenodd" clip-rule="evenodd" d="M21.1408 364.939L31.8397 360.333L33.154 341.914L24.7071 348.73L15.6973 336.94L14.1958 355.731L21.1408 364.939Z" fill="#6F3F15"/>
<path fill-rule="evenodd" clip-rule="evenodd" d="M13.4448 361.994L12.4433 380.606L20.2323 385.965L30.2129 382.082L31.8397 365.123L21.1408 371.571L13.4448 361.994Z" fill="#6F3F15"/>
<path fill-rule="evenodd" clip-rule="evenodd" d="M51.9242 388.083L68.316 373.414L69.0055 352.23L51.9242 364.939L38.4094 348.361L35.9694 378.184L51.9242 388.083ZM51.9859 381.102L55.9129 376.224L42.9615 359.092L41.1784 373.461L51.9859 381.102ZM55.4437 365.631L60.5118 373.921L63.5152 371.895L64.9227 358.447L55.4437 365.631ZM51.7365 357.388L68.6299 346.335L72.1966 321.098L53.0504 333.071L42.1638 318.703L38.9727 340.808L51.7365 357.388ZM52.6283 352.092L60.1362 346.565L45.5893 328.42L44.2754 341.776L52.6283 352.092ZM66.143 343.065L67.0816 326.946L57.5085 332.933L64.2658 344.262L66.143 343.065ZM51.9242 325.519L72.9471 313.545L76.8891 294.018L58.1186 305.071L47.7945 288.492L43.8529 308.939L51.9242 325.519ZM53.1912 319.301L61.5441 314.88L51.0327 298.577L48.5927 310.827L53.1912 319.301ZM61.3564 305.67L66.2366 313.13L68.1138 312.301L71.9617 299.775L61.3564 305.67ZM77.452 288.307L82.3326 271.912L64.8759 279.097L55.8661 262.333L49.4841 280.018L58.3062 298.623L77.452 288.307ZM59.6673 292.406L67.6445 288.261L57.8838 271.221L54.3174 281.538L59.6673 292.406ZM67.6448 280.524L71.3988 287.34L74.0266 285.866L78.6251 276.103L67.6448 280.524ZM67.1284 271.912L85.148 266.386L90.4038 249.438L73.6981 256.438L64.8759 237.648L58.3062 255.517L67.1284 271.912ZM68.8651 267.952L75.8097 265.879L66.6123 247.642L63.0459 256.3L68.8651 267.952ZM75.5281 258.05L78.203 265.096L81.3468 264.221L84.6319 254.458L75.5281 258.05Z" fill="#6F3F15"/>
<path fill-rule="evenodd" clip-rule="evenodd" d="M91.0842 356.675L92.492 355.846L92.9613 347.096L86.9549 351.793L91.0842 356.675ZM83.0129 366.899L93.7122 359.714L94.9321 342.49L85.359 350.319L75.5047 338.161L74.1908 355.938L83.0129 366.899ZM77.4758 354.556L84.0452 362.662L89.395 359.53L78.1327 345.253L77.4758 354.556ZM84.5145 343.227L95.3074 336.043L99.531 315.227L88.0811 322.227L78.8833 311.082L75.974 331.437L84.5145 343.227ZM85.7347 371.688L92.7737 382.188L93.243 365.333L85.7347 371.688ZM92.8673 335.306L82.6376 319.74L78.8833 329.964L86.2976 339.359L92.8673 335.306ZM95.0261 329.964L96.34 319.924L89.4886 323.792L93.8059 330.792L95.0261 329.964ZM90.4272 311.266L95.9647 307.858L87.0485 293.029L84.1392 301.134L90.4272 311.266ZM88.1748 314.95L101.877 307.121L105.068 290.449L91.9287 296.989L84.5145 284.186L80.4789 301.41L88.1748 314.95ZM94.9321 299.568L98.2172 306.384L100.282 305.371L102.44 295.423L94.9321 299.568ZM89.4886 277.647L94.8381 287.779L97.8415 278.107L91.9287 268.344L89.4886 277.647ZM94.2752 292.292L105.913 283.634L109.479 271.936L99.0618 275.897L91.1782 262.081L86.3916 277.094L94.2752 292.292ZM104.505 282.528L106.57 275.805L100.376 278.107L96.9969 287.963L104.505 282.528ZM112.482 266.41L116.8 252.778L106.101 255.633L101.502 242.001L93.8059 256.37L101.033 271.568L112.482 266.41ZM101.689 266.501L104.458 257.429L101.689 248.264L97.1846 256.001L101.689 266.501ZM113.89 256.923L107.008 258.846L103.754 267.607L110.887 265.212L113.89 256.923Z" fill="#6F3F15"/>
<path d="M12.9433 388.083L15.0264 405.24L24.5264 409.431L34.0264 404.529L30.5264 387.863C27.8051 388.59 22.2532 391.294 21.5264 391.294C20.7996 391.294 15.5396 388.811 12.9433 388.083Z" fill="#6F3F15"/>
<path d="M9.6345 382.25L0 378.686C4.02637 448.157 24.5264 505.02 96.34 566.784C115.552 582.32 134.239 595.953 153.073 608.106C156.205 610.127 159.341 612.107 162.484 614.049C195.209 634.257 228.708 650.238 266.467 664.179C269.48 665.291 272.52 666.39 275.589 667.478C281.294 669.5 287.099 671.48 293.016 673.427C297.01 674.741 301.054 676.04 305.153 677.325C329.882 685.081 356.584 692.354 386.026 699.627L479.026 614.824C471.182 612.919 463.245 610.959 455.234 608.938C451.764 608.062 448.28 607.175 444.785 606.276C423.738 600.863 402.261 595.015 380.734 588.626C375.383 587.038 370.029 585.417 364.677 583.76C358.395 581.815 352.117 579.822 345.852 577.778C336.151 574.613 326.481 571.326 316.879 567.907C313.256 566.616 309.642 565.307 306.039 563.979C252.847 544.364 202.149 520.538 160.026 490.804C124.026 461.882 115.026 440.804 104.328 392.465C104.328 325.519 113.7 262.405 159.663 208.453C161.059 206.814 161.903 203.738 160.507 202.098L156.452 197.332C156.426 197.362 156.4 197.392 156.374 197.422L154.129 200.024C154.107 200.049 154.086 200.073 154.064 200.098L156.19 202.466C157.311 203.715 156.897 206.241 155.721 207.44C112.549 251.462 95.44 316.981 96.4956 391.857C100.026 429.039 113.526 466.784 154.526 498.647C211.417 532.719 257.729 556.344 315.901 577.368C320.266 578.946 324.698 580.509 329.207 582.061C331.637 582.897 334.088 583.73 336.564 584.56C341.586 586.244 346.706 587.917 351.936 589.583C367.339 594.49 383.694 599.335 401.317 604.23C405.692 605.445 410.146 606.664 414.682 607.887C429.076 611.767 444.306 615.695 460.526 619.725L382.526 689.824C343.749 679.993 310.542 669.807 280.219 658.221C279.015 657.762 277.816 657.299 276.622 656.835C266.167 652.772 256.046 648.534 246.149 644.08C240.668 641.613 235.255 639.079 229.891 636.471C220.18 631.75 210.63 626.786 201.127 621.535C197.994 619.803 194.866 618.041 191.739 616.245C161.111 598.659 130.585 577.928 96.34 552.569C41.1784 503.94 20.2323 459.922 9.6345 382.25Z" fill="#6F3F15"/>
<path d="M507.552 389.824L499.997 393.543C494.275 465.532 418.73 521.918 306.039 563.979C309.642 565.307 313.256 566.616 316.879 567.907C444.6 519.757 502.087 462.87 507.552 389.824Z" fill="#6F3F15"/>
<path d="M162.484 614.049C159.341 612.107 156.205 610.127 153.073 608.106C142.689 610.424 132.169 612.663 121.526 614.824L219.526 706C249.391 696.612 277.993 687.137 305.153 677.325C301.054 676.04 297.01 674.741 293.016 673.427C269.892 680.643 245.401 687.262 219.526 693.255L138.526 619.725C146.663 617.845 154.648 615.953 162.484 614.049Z" fill="#6F3F15"/>
<path d="M602.438 377.658L595.165 379.179C589.472 468.875 540.364 546.64 444.785 606.276C448.28 607.175 451.764 608.062 455.234 608.938C544.095 555.122 598.18 484.941 602.438 377.658Z" fill="#6F3F15"/>
<path d="M35.9694 384.984L40.0264 403.059L57.5085 409.431L72.974 395.706L70.0055 378.686L53.1912 393.445L35.9694 384.984Z" fill="#6F3F15"/>
<path d="M74.1908 361.681L78.1327 395.706L86.9549 404.529L92.9613 395.706L91.8589 386.945L74.1908 361.681Z" fill="#6F3F15"/>
<path d="M590.826 388.285L588.743 405.441L579.243 409.633L569.743 404.731L573.243 388.064C575.964 388.792 581.516 391.495 582.243 391.495C582.97 391.495 588.23 389.012 590.826 388.285Z" fill="#6F3F15"/>
<path d="M567.8 385.186L563.743 403.26L546.261 409.633L530.796 395.907L533.764 378.887L550.578 393.646L567.8 385.186Z" fill="#6F3F15"/>
<path d="M529.579 361.882L525.637 395.907L516.815 404.731L510.808 395.907L511.911 387.146L529.579 361.882Z" fill="#6F3F15"/>
<path fill-rule="evenodd" clip-rule="evenodd" d="M518.035 371.89L510.996 382.39L510.527 365.534L518.035 371.89Z" fill="#6F3F15"/>
<path d="M572.71 365.534L573.243 384.431L582.243 388.064L590.354 385.186V362.54L583.408 369.235L572.71 365.534Z" fill="#6F3F15"/>
<path d="M265.299 578.064C269.894 576.591 274.441 575.098 278.938 573.583C174.148 533.724 92.2249 480.488 92.9613 409.431L86.1046 416.294L74.1908 405.24L57.5085 419.235L38.4094 412.373L27.5 419.235L20.2323 416.294C35.9663 490.119 97.2254 553.543 179.091 602.062C183.585 600.976 188.049 599.874 192.484 598.757C121.477 559.499 60.2787 506.132 30.5264 429.529L38.9727 424.137L53.4437 429.039L63.8172 424.137L74.1908 419.235L86.9549 427.078C93.5856 481.246 158.401 535.414 265.299 578.064Z" fill="#6F3F15"/>
<path d="M289.781 577.632C285.264 579.177 280.67 580.713 275.998 582.24C280.101 583.807 284.263 585.358 288.481 586.891C292.967 588.521 297.517 590.132 302.131 591.722C307.672 593.632 313.306 595.513 319.029 597.363C321.86 598.278 324.714 599.186 327.589 600.086C333.222 601.85 338.938 603.584 344.737 605.288C356.169 608.647 367.921 611.889 379.981 615.004C384.854 616.263 389.777 617.501 394.75 618.717C401.4 620.344 408.139 621.934 414.964 623.483C418.062 621.829 421.119 620.158 424.136 618.472C417.669 616.815 411.191 615.122 404.714 613.39C400.084 612.152 395.453 610.894 390.827 609.617C373.836 604.925 356.903 599.967 340.231 594.727C336.136 593.44 332.057 592.136 327.997 590.815C323.995 589.513 320.011 588.194 316.048 586.859C311.459 585.312 306.897 583.742 302.369 582.15C298.143 580.664 293.946 579.158 289.781 577.632Z" fill="#6F3F15"/>
<path d="M278.938 573.583C274.441 575.098 269.894 576.591 265.299 578.064C268.82 579.469 272.386 580.861 275.998 582.24C280.67 580.713 285.264 579.177 289.781 577.632C286.142 576.298 282.526 574.948 278.938 573.583Z" fill="#6F3F15"/>
<path d="M335 659.123C324.553 655.633 314.027 651.982 303.482 648.144C303.315 648.083 303.149 648.023 302.982 647.962C302.768 647.884 302.554 647.806 302.339 647.727C291.572 643.795 280.787 639.668 270.047 635.318C264.48 633.063 258.925 630.749 253.39 628.371C243.794 624.248 234.261 619.934 224.836 615.411C221.188 613.66 217.556 611.877 213.942 610.062C209.98 608.072 206.041 606.042 202.127 603.972C197.647 605.165 193.112 606.352 188.522 607.535C192.346 609.707 196.211 611.848 200.115 613.956C203.438 615.751 206.79 617.522 210.168 619.27C219.598 624.15 229.237 628.846 239.051 633.353C244.494 635.852 249.991 638.293 255.536 640.675C265.806 645.086 276.243 649.294 286.812 653.293C287.664 653.615 288.518 653.936 289.372 654.256C299.232 657.948 309.204 661.457 319.26 664.78C324.586 662.928 329.832 661.042 335 659.123Z" fill="#6F3F15"/>
<path d="M192.484 598.757C188.049 599.874 183.585 600.976 179.091 602.062C182.205 603.908 185.35 605.732 188.522 607.535C193.112 606.352 197.647 605.165 202.127 603.972C198.894 602.262 195.679 600.524 192.484 598.757Z" fill="#6F3F15"/>
<path d="M344.749 662.341C339.815 664.303 334.825 666.248 329.779 668.178C347.19 673.674 364.821 678.61 382.526 682.961L444.785 623.647C441.266 622.784 437.741 621.91 434.211 621.025C431.279 622.627 428.315 624.215 425.318 625.789C426.543 626.057 427.77 626.323 429 626.588L407.5 646.621L396.5 656.87L380 673.427C368.437 669.909 356.657 666.226 344.749 662.341Z" fill="#6F3F15"/>
<path d="M335 659.123C329.832 661.042 324.586 662.928 319.26 664.78C322.757 665.935 326.263 667.068 329.779 668.178C334.825 666.248 339.815 664.303 344.749 662.341C341.508 661.283 338.258 660.211 335 659.123Z" fill="#6F3F15"/>
<path d="M424.136 618.472C421.119 620.158 418.062 621.829 414.964 623.483C418.394 624.262 421.845 625.031 425.318 625.789C428.315 624.215 431.279 622.627 434.211 621.025C430.856 620.184 427.498 619.333 424.136 618.472Z" fill="#6F3F15"/>
<path d="M225.541 589.975C230.007 588.724 234.436 587.456 238.827 586.171C160.871 550.732 93.416 502.191 63.8172 424.137L53.4437 429.039C82.81 492.804 120.923 539.553 225.541 589.975Z" fill="#6F3F15"/>
<path d="M235.513 594.698C240.078 593.374 244.579 592.043 249.017 590.706C245.602 589.218 242.205 587.707 238.827 586.171C234.436 587.456 230.007 588.724 225.541 589.975C228.8 591.546 232.124 593.12 235.513 594.698Z" fill="#6F3F15"/>
<path d="M366.463 646.608C372.279 644.132 377.982 641.609 383.571 639.039C377.551 637.126 371.499 635.195 365.425 633.239C360.553 631.67 355.668 630.085 350.774 628.479C350.414 628.361 350.054 628.243 349.694 628.125C338.79 624.542 327.85 620.859 316.94 617.038C311.367 615.087 305.803 613.1 300.254 611.071C291.399 607.834 282.585 604.491 273.848 601.022C269.569 599.324 265.308 597.595 261.07 595.833C257.031 594.155 253.012 592.446 249.017 590.706C244.579 592.043 240.078 593.374 235.513 594.698C239.379 596.498 243.331 598.304 247.371 600.115C251.33 601.89 255.373 603.672 259.505 605.46C267.954 609.117 276.771 612.803 285.974 616.526C291.252 618.661 296.657 620.808 302.194 622.969C312.317 626.919 322.88 630.915 333.906 634.964C334.168 635.061 334.432 635.157 334.695 635.254C344.884 638.99 355.467 642.773 366.463 646.608Z" fill="#6F3F15"/>
<path d="M375.262 649.657C381.127 647.104 386.9 644.517 392.578 641.895C389.585 640.947 386.582 639.995 383.571 639.039C377.982 641.609 372.279 644.132 366.463 646.608C369.367 647.621 372.3 648.637 375.262 649.657Z" fill="#6F3F15"/>
<path d="M396.5 656.87L407.5 646.621C402.557 645.054 397.581 643.48 392.578 641.895C386.9 644.517 381.127 647.104 375.262 649.657C382.181 652.04 389.259 654.444 396.5 656.87Z" fill="#6F3F15"/>
<path d="M337.565 578.897C332.967 577.434 328.416 575.951 323.916 574.447C347.338 565.478 369.614 555.841 390.074 545.49C429.427 525.58 462.063 503.025 483.22 477.48C500.233 456.939 509.822 434.465 509.51 409.879L516.382 416.727L528.27 405.646L544.985 419.604L564.068 412.698L574.993 419.536L582.254 416.579C566.692 490.439 505.581 554 423.829 602.702C419.333 601.626 414.865 600.534 410.428 599.427C481.343 560.01 542.417 506.506 571.991 429.837L563.532 424.464L549.073 429.398L538.688 424.52L528.303 419.641L515.557 427.513C514.135 439.362 509.929 451.217 503.11 462.958C480.299 502.229 428.237 540.218 353.216 572.402C348.105 574.594 342.887 576.76 337.565 578.897Z" fill="#6F3F15"/>
<path fill-rule="evenodd" clip-rule="evenodd" d="M323.916 574.447C327.114 575.533 330.279 576.551 333.513 577.59C334.849 578.02 336.198 578.453 337.565 578.897C334.85 579.941 332.062 580.997 329.207 582.061C324.698 580.509 320.266 578.946 315.901 577.368C318.622 576.388 321.296 575.414 323.916 574.447ZM302.369 582.15C306.897 583.742 311.459 585.312 316.048 586.859L316.253 586.786C311.668 588.423 306.953 590.072 302.131 591.722C297.517 590.132 292.967 588.521 288.481 586.891C293.191 585.309 297.828 583.726 302.369 582.15ZM261.07 595.833C256.521 597.275 251.948 598.705 247.371 600.115C251.33 601.89 255.373 603.672 259.505 605.46C264.328 603.998 269.115 602.517 273.848 601.022C269.569 599.324 265.308 597.595 261.07 595.833ZM200.115 613.956C204.665 612.698 209.281 611.397 213.942 610.062C217.556 611.877 221.188 613.66 224.836 615.411C219.936 616.737 215.041 618.026 210.168 619.27C206.79 617.522 203.438 615.751 200.115 613.956ZM191.739 616.245C187.35 617.43 183.038 618.571 178.823 619.66C181.843 621.34 184.904 623.004 188.006 624.651C192.343 623.656 196.721 622.616 201.127 621.535C197.994 619.803 194.866 618.041 191.739 616.245Z" fill="#6F3F15"/>
<path d="M380.734 588.626C472.461 543.589 522.843 496.434 549.073 429.398L532.216 441.707C508.346 496.418 456.201 541.031 364.677 583.76C370.029 585.417 375.383 587.038 380.734 588.626Z" fill="#6F3F15"/>
<path fill-rule="evenodd" clip-rule="evenodd" d="M327.997 590.815L319.029 597.363C321.86 598.278 324.714 599.186 327.589 600.086C331.875 598.302 336.089 596.515 340.231 594.727C336.136 593.44 332.057 592.136 327.997 590.815ZM336.564 584.56C341.586 586.244 346.706 587.917 351.936 589.583C356.265 587.646 360.512 585.705 364.677 583.76C358.395 581.815 352.117 579.822 345.852 577.778L336.564 584.56ZM532.216 441.707L549.073 429.398L538.688 424.52C536.821 430.361 534.667 436.087 532.216 441.707ZM353.216 572.402L390.074 545.49C429.427 525.58 462.063 503.025 483.22 477.48L503.11 462.958C480.299 502.229 428.237 540.218 353.216 572.402ZM253.39 628.371C248.677 630.03 243.898 631.69 239.051 633.353C244.494 635.852 249.991 638.293 255.536 640.675C260.445 638.882 265.282 637.097 270.047 635.318C264.48 633.063 258.925 630.749 253.39 628.371ZM229.891 636.471C235.255 639.079 240.668 641.613 246.149 644.08L246.585 643.922C233.731 648.556 220.39 653.242 206.548 657.997L195.524 647.772C207.327 643.99 218.78 640.225 229.891 636.471Z" fill="#6F3F15"/>
<path fill-rule="evenodd" clip-rule="evenodd" d="M158.186 624.882L220.582 684.056L266.467 664.179L280.219 658.221C279.015 657.762 277.816 657.299 276.622 656.835C260.719 662.305 243.105 668.105 223.086 674.517L206.548 657.997L195.524 647.772L174.978 627.786L188.006 624.651C184.904 623.004 181.843 621.34 178.823 619.66L158.186 624.882ZM303.482 648.144L289.372 654.256C288.518 653.936 287.664 653.615 286.812 653.293C292.172 651.408 297.337 649.557 302.339 647.727C302.554 647.806 302.768 647.884 302.982 647.962L303.482 648.144ZM334.695 635.254L333.906 634.964L349.694 628.125C350.054 628.243 350.414 628.361 350.774 628.479C344.884 631.042 338.887 633.559 332.7 636.065C333.367 635.794 334.032 635.524 334.695 635.254ZM379.981 615.004C384.854 616.263 389.777 617.501 394.75 618.717C398.044 616.987 401.361 615.213 404.714 613.39C400.084 612.152 395.453 610.894 390.827 609.617C387.186 611.458 383.577 613.251 379.981 615.004ZM401.317 604.23C405.692 605.445 410.146 606.664 414.682 607.887C417.693 606.201 420.739 604.474 423.829 602.702C419.333 601.626 414.865 600.534 410.428 599.427C407.351 601.067 404.317 602.667 401.317 604.23Z" fill="#6F3F15"/>
<path d="M275.589 667.478C272.52 666.39 269.48 665.291 266.467 664.179L220.582 684.056C241 678.179 259.107 672.748 275.589 667.478Z" fill="#6F3F15"/>
<path d="M337.257 305.091C337.816 303.86 338.442 302.425 339.068 300.87C340.947 296.205 343.071 289.909 343.071 284.83C343.071 261.561 324.202 243.036 301 243.036C277.798 243.036 258.929 261.561 258.929 284.83C258.929 289.918 261.052 296.213 262.932 300.877C263.559 302.432 264.184 303.867 264.744 305.098C231.775 310.962 201.71 324.839 176.206 344.392C176.022 341.619 175.929 338.821 175.929 336C175.929 266.925 231.925 210.929 301 210.929C370.075 210.929 426.071 266.925 426.071 336C426.071 338.75 425.983 341.48 425.808 344.185C400.29 324.694 370.208 310.906 337.257 305.091ZM207.537 357.073C200.288 367.161 193.902 378.341 188.346 390.399C186.104 385.764 184.139 380.971 182.474 376.04C190.023 368.91 198.521 362.602 207.537 357.073ZM207.148 418.674C219.194 386.605 236.69 360.614 258.405 344.983C248.336 369.657 240.726 403.547 236.542 443.205C225.524 436.565 215.611 428.274 207.148 418.674ZM301 461.071C288.142 461.071 275.744 459.132 264.078 455.533C266.745 418.06 273.785 386.637 281.506 364.505C285.466 353.155 289.567 344.358 293.282 338.467C295.145 335.512 296.834 333.412 298.265 332.092C299.785 330.689 300.569 330.572 300.661 330.571C300.778 330.571 301.567 330.687 303.079 332.034C304.509 333.307 306.203 335.345 308.075 338.232C311.808 343.987 315.941 352.633 319.935 363.892C327.727 385.857 334.842 417.348 337.51 455.66C325.964 459.178 313.706 461.071 301 461.071ZM343.04 344.79C364.277 359.745 382.562 385.818 394.408 419.175C385.939 428.679 376.042 436.882 365.055 443.447C360.899 403.876 353.308 369.623 343.04 344.79ZM393.389 356.112C402.63 361.87 411.353 368.501 419.573 375.902C417.815 381.126 415.722 386.197 413.318 391.089C407.501 378.327 400.826 366.589 393.389 356.112ZM301 489.5C385.776 489.5 454.5 420.776 454.5 336C454.5 251.224 385.776 182.5 301 182.5C216.224 182.5 147.5 251.224 147.5 336C147.5 420.776 216.224 489.5 301 489.5Z" fill="#FFD700" stroke="#6F3F15" stroke-width="7" stroke-miterlimit="16"/>
<path d="M289 503.5C186 503.5 115.5 513 68 535C54.2662 541.361 46 513.5 36.0001 495C24 540 88.525 605.594 115.5 624C206.5 589 373 585 478.5 623.5C505.476 605.094 579.293 539.296 563.692 495C560.28 524.126 535.065 546.39 519.5 538.5C479.199 518.071 392 503.5 289 503.5Z" fill="#F70101" stroke="#6F3F15" stroke-width="7"/>
<path fill-rule="evenodd" clip-rule="evenodd" d="M110.597 541.364C115.918 540.112 121.25 538.904 126.59 537.743C128.431 537.341 131.23 536.284 132.541 537.224C133.474 537.829 135.346 542.451 135.547 543.378C134.537 544.494 131.559 544.83 129.305 545.313C124.429 546.353 119.56 547.435 114.703 548.558C115.821 550.518 116.94 552.484 118.061 554.454C123.157 553.284 128.268 552.164 133.389 551.092C135.153 550.721 137.83 549.716 139.109 550.667C139.767 551.123 140.284 552.57 140.723 553.469C141.873 555.823 143.023 558.178 144.174 560.533C147.347 567.03 150.529 573.538 153.723 580.076C155.298 583.293 157.627 587.294 158.471 590.239C158.371 590.473 158.272 590.707 158.173 590.941C156.359 591.348 153.116 592.524 151.398 592.188C149.531 590.542 147.308 585.376 145.824 582.521C141.762 574.729 137.723 566.998 133.701 559.306C122.743 561.637 111.841 564.21 101.031 567.055C106.309 575.146 111.642 583.396 117.023 591.793C118.195 593.613 122.25 599.302 121.632 600.062C121.488 600.716 117.963 601.471 116.987 601.787C116.534 601.93 115.855 602.29 115.41 602.151C114.908 602.112 114.583 601.804 114.115 601.576C108.085 592.556 102.112 583.716 96.2079 575.08C94.4009 572.437 92.6 569.813 90.8055 567.209C89.7405 565.663 88.377 563.828 87.8475 562.549C88.8985 561.401 92.144 560.866 94.3909 560.276C99.2564 558.996 104.139 557.765 109.034 556.581C107.852 554.627 106.672 552.679 105.495 550.739C99.9329 552.089 94.3849 553.494 88.8575 554.957C87.291 555.368 84.335 556.683 83.111 555.732C82.263 555.336 79.1655 550.586 79 549.866C79.8835 548.739 83.2525 548.214 85.402 547.649C90.6445 546.266 95.9029 544.927 101.171 543.631C100.827 543.102 100.125 542.152 100.16 541.754C100.05 541.37 100.058 541.177 100.348 540.958C100.643 540.33 104.98 539.571 106.201 539.281C106.768 539.145 107.653 538.808 108.144 538.941C108.581 538.965 108.821 539.096 109.165 539.324C109.733 539.647 110.202 540.635 110.597 541.364ZM348.998 527.563C355.232 528.108 361.466 528.729 367.693 529.42C368.058 527.658 368.726 522.837 369.959 522.498C370.536 522.168 371.699 522.448 372.555 522.551C374.819 522.82 377.77 522.94 379.513 523.664C379.891 525.311 378.82 528.382 378.211 530.657C380.155 530.847 385.276 531.111 385.406 532.452C385.631 532.888 385.261 533.783 385.045 534.516C384.536 536.26 384.066 538.824 383.152 540.075C381.27 540.71 378.242 540.081 375.765 539.778C374.426 544.662 373.057 549.49 371.667 554.264C374.234 554.527 377.526 554.71 379.382 555.53C379.433 555.747 379.52 555.981 379.629 556.161C378.892 558.495 378.128 561.508 377.044 563.375C375.203 563.749 373.133 563.389 370.893 563.139C367.522 562.762 364.147 562.408 360.769 562.077C353.098 561.324 345.408 560.686 337.709 560.169C335.342 560.01 332.974 559.862 330.606 559.725C329.102 559.638 327.329 559.603 326.183 559.246C325.697 558.011 326.266 555.467 326.521 553.532C326.609 552.857 326.697 552.18 326.785 551.502C326.929 551.196 327.318 550.927 327.643 550.825C328.106 550.5 329.022 550.66 329.753 550.702C331.467 550.8 333.181 550.904 334.895 551.014C335.658 546.121 336.394 541.161 337.093 536.127C334.881 535.996 332.217 535.909 330.584 535.331C330.004 533.878 330.902 529.314 331.147 527.097C331.449 526.863 331.751 526.63 332.054 526.396C333.35 525.947 336.751 526.576 338.343 526.706C338.606 524.494 338.796 521.727 339.414 519.917C341.116 518.951 347.005 519.707 349.403 520.243C349.544 520.573 349.765 521.029 349.977 521.316C349.658 523.411 349.331 525.494 348.998 527.563ZM297.545 534.814C297.494 538.392 297.424 541.928 297.338 545.426C301.446 545.482 305.555 545.573 309.663 545.698C311.393 545.749 313.554 545.521 313.906 546.935C314.117 547.364 313.892 548.48 313.84 549.116C313.685 551.013 313.68 553.337 313.231 554.992C311.804 555.884 309.992 555.603 307.798 555.544C304.217 555.448 300.635 555.378 297.054 555.335C296.918 559.485 296.764 563.588 296.598 567.653C302.154 567.709 307.71 567.83 313.261 568.015C315.006 568.07 318.252 567.7 318.594 569.148C318.85 569.557 318.63 570.513 318.538 571.247C318.298 573.178 318.136 575.6 317.593 577.13C315.167 578.342 308.821 577.519 305.407 577.455C296.115 577.255 286.812 577.241 277.512 577.415C274.632 577.469 271.752 577.541 268.873 577.631C267.44 577.676 265.997 577.911 265.34 576.936C265.018 576.504 265.037 575.509 264.981 574.73C264.841 572.814 264.593 570.622 264.652 568.875C266.175 567.62 268.582 567.918 271.176 567.852C275.978 567.728 280.783 567.653 285.585 567.627C285.59 563.555 285.582 559.444 285.556 555.288C282.01 555.302 278.463 555.342 274.919 555.408C272.521 555.453 271.31 555.899 269.921 554.556C269.751 551.92 269.258 548.472 269.629 546.194C270.897 545.447 273.071 545.501 275.137 545.466C278.577 545.406 282.018 545.372 285.459 545.362C285.411 541.858 285.349 538.315 285.268 534.73C280.221 534.739 275.176 534.802 270.135 534.92C268.462 534.956 265.629 535.476 265.022 534.179C264.644 533.764 264.669 532.723 264.602 531.925C264.434 529.925 263.817 526.918 264.26 525.319C265.61 524.358 268.511 524.553 270.81 524.506C275.727 524.401 280.65 524.349 285.575 524.35C285.509 522.839 285.018 519.695 285.625 518.673C286.082 517.909 287.412 518.026 288.609 518.034C291.186 518.047 294.368 517.821 296.556 518.386C297.396 519.799 297.188 522.058 297.165 524.321C298.645 524.871 301.873 524.54 303.675 524.589C308.488 524.715 313.306 524.89 318.124 525.112C318.481 525.451 318.944 525.54 319.131 526.049C319.453 526.497 319.265 527.534 319.208 528.331C319.067 530.349 319.096 532.822 318.624 534.576C316.778 535.725 314.59 535.273 311.781 535.174C307.035 535.007 302.289 534.887 297.545 534.814ZM410.135 539.669C409.232 541.948 408.324 544.219 407.413 546.479C409.447 546.741 414.588 547 414.017 548.766C414.092 549.203 413.499 550.233 413.238 550.832C412.464 552.158 411.616 554.571 410.794 556.139C410.456 556.273 410.33 556.418 409.942 556.486C408.996 556.925 404.639 555.901 403.31 555.688C403.294 555.726 403.279 555.764 403.263 555.802C403.67 556.277 403.731 556.891 403.955 557.477C404.576 559.102 405.499 560.521 405.929 562.235C406.16 563.155 407.109 563.732 406.589 565.096C406.677 565.76 405.625 567.498 405.242 568.35C403.972 571.183 402.769 574.689 401.124 577.202C401.023 577.186 400.923 577.171 400.822 577.155C400.389 575.076 399.486 573.089 399.008 570.962C398.839 570.205 398.887 568.966 398.31 568.482C396.146 573.593 393.971 578.658 391.796 583.68C391.763 583.675 391.73 583.671 391.698 583.666C391.345 584.149 390.983 584.363 390.389 584.296C389.88 584.518 388.873 584.199 388.294 584.118C386.541 583.874 384.635 583.598 383.066 583.294C383.011 583.024 382.899 582.679 382.785 582.441C384.792 577.345 386.796 572.204 388.785 567.012C388.75 567.007 388.715 567.002 388.68 566.997C386.379 569.229 383.631 571.03 381.306 573.121C380.494 573.85 379.56 575.057 378.462 575.114C378.489 575.039 378.516 574.964 378.543 574.889C378.44 574.354 380.289 569.732 380.663 568.678C381.266 566.991 382.071 563.646 383.015 562.327C383.65 561.442 384.946 560.964 385.736 560.29C387.186 559.052 388.876 558.152 390.322 556.945C391.357 556.081 392.594 555.007 393.771 554.41C393.785 554.372 393.799 554.334 393.814 554.295C391.774 554.009 389.731 553.729 387.688 553.458C387.435 553.136 387.068 553.152 387.05 552.648C386.874 552.15 387.35 551.1 387.621 550.303C388.285 548.354 388.952 545.942 389.848 544.393C391.672 543.807 394.756 544.57 397.022 544.91C397.694 543.051 398.362 541.184 399.027 539.311C397.905 539.235 393.918 539.518 393.328 538.982C392.924 538.613 393.459 537.494 393.724 536.692C394.424 534.566 395.12 532.43 395.811 530.284C395.85 530.29 395.89 530.296 395.929 530.301C397.15 528.632 400.131 529.767 402.282 529.629C405.416 529.427 408.598 530.199 411.867 530.029C414.279 529.902 417.923 530.044 420.088 530.546C420.134 530.773 420.217 531.019 420.328 531.211C419.269 533.839 418.158 537.284 416.674 539.39C414.909 539.98 412.344 539.955 410.135 539.669ZM465.244 539.489C477.84 542.289 490.323 545.318 502.648 548.566C505.949 549.436 509.241 550.323 512.521 551.225C513.499 551.493 515.834 551.783 516.202 552.372C516.527 552.628 516.398 552.881 516.47 553.208C506.342 564.912 496.431 576.649 486.626 588.277C483.976 591.421 481.335 594.558 478.703 597.685C478.048 598.465 476.321 600.783 475.643 601.187C475.156 601.573 474.796 601.604 474.313 601.816C463.776 598.969 453.119 596.369 442.369 594.014C439.896 593.472 437.416 592.943 434.933 592.428C433.768 592.185 432.435 592.169 432.718 591.137C432.682 590.432 434.075 588.605 434.699 587.601C436.587 584.559 438.48 581.505 440.374 578.439C445.617 569.957 450.875 561.38 456.136 552.735C457.772 550.047 459.409 547.351 461.047 544.651C462.048 543.002 463.154 541.019 464.271 539.771C464.566 539.704 464.961 539.616 465.244 539.489ZM179.803 551.102C177.483 551.448 175.164 551.805 172.848 552.173C173.613 554.198 174.377 556.22 175.141 558.236C177.307 557.83 182.476 556.388 183.318 558.472C183.679 558.823 183.915 559.853 184.122 560.441C184.742 562.207 185.54 564.261 185.751 565.713C184.638 566.958 180.942 567.053 178.614 567.405C179.493 569.721 180.371 572.034 181.248 574.345C183.461 573.996 185.678 573.657 187.895 573.33C189.045 573.16 190.189 572.929 190.836 573.754C191.701 576.265 192.565 578.773 193.428 581.278C193.196 581.566 193.065 582.043 192.718 582.233C190.707 582.531 188.697 582.838 186.69 583.155C181.425 583.987 176.172 584.889 170.937 585.863C169.154 586.188 164.877 587.538 163.657 586.513C163.168 586.132 162.802 585.131 162.446 584.364C161.623 582.59 160.436 580.447 159.985 578.825C160.555 577.996 160.848 577.884 162.406 577.611C160.515 573.437 158.627 569.267 156.741 565.098C156.039 563.545 154.707 561.459 155.627 560.827C155.908 560.424 156.85 560.354 157.575 560.222C159.262 559.915 161.255 559.444 162.753 559.548C163.936 560.599 164.696 562.79 165.528 564.761C167.13 568.565 168.732 572.365 170.336 576.166C171.116 576.028 171.897 575.893 172.678 575.758C169.649 568.421 166.624 561.082 163.59 553.7C160.874 554.165 158.161 554.645 155.45 555.139C153.795 555.44 151.865 555.889 150.404 555.827C150.115 555.633 149.827 555.438 149.538 555.244C148.393 552.797 146.661 549.674 146.222 547.513C147.649 546.215 151.868 545.939 154.494 545.464C160.948 544.29 167.416 543.193 173.894 542.177C173.865 542.098 173.837 542.019 173.808 541.94C172.801 541.05 172.234 539.466 171.401 538.306C170.022 536.372 166.418 531.944 165.971 529.578C166.265 529.244 166.184 529.071 166.856 528.917C167.189 528.547 168.51 528.51 169.175 528.399C171.283 528.045 174.939 526.918 176.05 528.436C177.122 529.211 177.717 530.946 178.531 532.132C180.4 534.86 182.392 537.769 184.018 540.656C188.458 540.018 192.905 539.42 197.354 538.861C197.601 539.033 197.81 539.092 198.141 539.138C199.244 540.346 199.757 543.208 200.327 545.231C200.516 545.906 200.923 546.89 200.821 547.4C200.765 547.686 200.486 547.948 200.213 548.092C199.789 548.607 198.205 548.585 197.288 548.7C194.739 549.02 192.191 549.353 189.645 549.699C189.658 549.738 189.67 549.778 189.683 549.817C190.865 550.975 191.827 553.446 192.796 554.942C195.315 558.836 197.649 563.066 200.049 566.93C200.822 568.175 202.112 571.212 202.971 572.005C203.456 572.24 206.02 571.829 206.624 571.8C207.706 572.961 208.222 575.581 208.815 577.668C208.995 578.304 209.451 579.435 209.34 579.884C209.332 581.1 207.955 581.011 206.633 581.177C204.303 581.462 199.516 582.797 198.309 580.949C197.694 580.311 197.401 579.303 196.877 578.485C195.432 576.231 194.169 573.791 192.627 571.435C189.97 567.384 187.643 563.04 184.814 558.869C183.799 557.374 182.898 555.741 181.799 554.142C181.16 553.213 180.345 552.19 179.803 551.102ZM182.584 526.409C185.386 525.991 188.19 525.589 190.995 525.202C191.317 525.459 191.638 525.716 191.959 525.972C192.618 528.242 193.272 530.498 193.923 532.74C194.27 533.937 194.709 534.953 193.974 535.392C193.62 535.744 192.362 535.73 191.705 535.818C189.749 536.08 187.426 536.657 185.563 536.539C185.371 536.345 185.134 536.144 184.909 536.002C183.982 533.106 183.049 530.189 182.109 527.25C182.292 527.025 182.453 526.674 182.584 526.409ZM143.068 533.937C147.922 532.973 152.784 532.049 157.65 531.169C159.444 530.843 161.95 529.987 162.961 531.243C163.378 531.612 163.657 532.74 163.896 533.366C164.596 535.199 165.653 537.409 165.953 539.075C164.961 540.155 162.613 540.392 160.379 540.783C157.629 541.264 154.881 541.758 152.136 542.266C150.121 542.639 147.844 543.12 146.15 543.021C144.784 541.851 142.492 536.579 142.156 534.749C142.395 534.514 142.859 534.23 143.068 533.937ZM244.532 545.79C244.752 547.333 244.97 548.87 245.185 550.401C248.54 550.201 251.897 550.025 255.255 549.872C257.848 549.755 258.965 549.337 260.502 550.747C260.742 553.215 261.272 556.214 261.082 558.44C260.825 558.651 260.601 559.049 260.295 559.189C259.377 559.607 257.737 559.413 256.592 559.465C253.87 559.587 251.147 559.724 248.426 559.878C248.437 559.957 248.447 560.036 248.457 560.116C249.571 560.954 250.743 563.041 251.623 564.24C253.484 566.773 255.428 569.215 257.222 571.768C257.975 572.835 259.753 574.457 259.957 575.984C259.755 576.187 259.785 576.323 259.501 576.472C259.062 576.919 257.734 576.786 256.93 576.825C254.607 576.937 251.777 577.368 249.723 576.979C246.99 572.891 243.886 568.834 240.855 564.771C240.163 563.843 239.493 562.926 238.824 562.043C238.554 561.686 238.19 560.731 237.829 560.554C232.498 560.934 227.171 561.374 221.851 561.874C222.43 564.471 223.005 567.056 223.577 569.631C227.485 569.263 231.398 568.929 235.313 568.627C235.548 568.68 235.807 568.864 236.097 568.924C236.245 569.122 236.43 569.329 236.611 569.48C237.051 571.908 237.822 574.859 237.839 577.08C236.744 578.122 234.847 578.021 232.784 578.196C229.134 578.504 225.487 578.843 221.844 579.213C220.299 579.367 217.466 580.179 216.671 578.923C216.075 578.27 215.801 576.329 215.519 575.226C214.705 572.047 213.888 568.856 213.066 565.65C210.843 556.972 208.586 548.18 206.263 539.175C205.54 536.376 204.811 533.556 204.075 530.712C203.599 528.873 202.981 526.737 202.893 525.213C203.734 524.485 205.499 524.384 207.147 524.195C210.07 523.86 212.995 523.542 215.922 523.243C224.147 522.402 232.39 521.707 240.644 521.164C243.183 520.996 245.725 520.844 248.268 520.705C249.837 520.619 251.699 520.458 252.949 520.726C253.912 522.07 253.965 525.217 254.216 527.369C254.66 531.182 255.084 534.945 255.491 538.662C255.711 540.658 256.111 543.109 255.92 544.705C253.128 545.837 248.178 545.57 244.532 545.79ZM425.977 535.317C433.331 536.638 440.661 538.045 447.957 539.532C449.841 539.911 454.648 540.385 454.41 541.738C454.543 542.457 453.252 544.211 452.678 545.212C451.01 548.118 449.34 551.017 447.67 553.906C443.043 561.915 438.408 569.855 433.782 577.71C432.367 580.113 430.952 582.509 429.539 584.897C428.624 586.445 427.599 588.277 426.627 589.449C424.53 590.008 421.392 588.919 419.144 588.508C413.607 587.492 408.048 586.538 402.472 585.65C402.379 585.181 402.126 585.136 402.462 584.357C402.414 583.666 403.557 581.843 403.982 580.953C405.373 578.033 406.764 575.098 408.152 572.15C411.884 564.227 415.601 556.198 419.275 548.063C420.932 544.418 422.884 538.82 425.016 535.765C425.336 535.616 425.656 535.466 425.977 535.317ZM468.742 549.841C460.978 561.752 453.251 573.566 445.571 585.208C455.036 587.263 464.431 589.5 473.738 591.915C482.755 580.65 491.862 569.256 501.109 557.847C490.431 554.997 479.632 552.327 468.742 549.841ZM215.393 533.158C215.788 534.891 216.179 536.615 216.567 538.331C225.98 537.398 235.413 536.648 244.858 536.089C244.612 534.348 244.362 532.596 244.107 530.835C234.52 531.413 224.946 532.191 215.393 533.158ZM483.447 563.91C482.58 565.062 481.713 566.213 480.848 567.363C482.698 567.825 484.544 568.293 486.387 568.767C486.696 569.008 486.616 569.5 486.693 569.843C485.597 571.273 484.184 573.385 482.914 574.347C481.004 574.782 478.459 573.845 476.374 573.315C474.441 575.887 472.512 578.456 470.588 581.017C472.743 581.548 474.894 582.089 477.04 582.638C478.152 582.922 479.238 583.07 478.88 583.978C478.791 584.585 475.473 588.461 474.802 589.106C472.588 589.686 469.704 588.54 467.354 587.959C463.425 586.986 459.48 586.043 455.522 585.133C453.286 584.617 450.459 584.168 448.993 583.298C449.063 582.127 451.244 578.891 452.568 577.415C454.85 576.721 459.651 578.382 462.183 578.996C464.02 576.408 465.86 573.814 467.703 571.214C465.682 570.755 463.068 570.334 461.657 569.564C461.663 569.186 461.503 569.17 461.811 568.618C461.831 567.984 464.199 564.932 464.765 564.253C465.12 564.141 465.599 563.954 465.951 563.787C467.96 564.25 469.966 564.72 471.968 565.197C472.793 564.034 473.618 562.87 474.444 561.705C472.051 561.132 469.653 560.569 467.251 560.016C466.117 559.755 464.859 559.649 465.054 558.774C464.937 558.181 468.037 553.753 468.778 552.948C470.734 552.419 473.622 553.448 475.865 553.981C481.127 555.231 486.367 556.525 491.579 557.862C493.388 558.321 498.207 559.072 497.748 560.346C497.665 561.064 494.451 564.634 493.624 565.653C493.158 565.782 492.545 566.104 492.076 566.122C489.208 565.371 486.331 564.633 483.447 563.91ZM431.334 546.662C426.11 557.237 420.829 567.657 415.544 577.909C417.891 578.317 420.235 578.736 422.575 579.165C428.148 568.983 433.726 558.645 439.265 548.171C436.626 547.656 433.981 547.153 431.334 546.662ZM347.433 536.915C346.566 541.914 345.663 546.843 344.733 551.709C350.487 552.153 356.236 552.662 361.976 553.235C363.199 548.426 364.399 543.558 365.567 538.63C359.529 537.989 353.482 537.416 347.433 536.915ZM119.155 570.355C120.812 569.952 122.471 569.556 124.132 569.167C124.088 569.092 124.045 569.017 124.002 568.941C124.138 567.563 122.647 565.572 122.71 564.142C122.849 563.814 122.988 563.485 123.128 563.157C125.253 562.472 128.469 561.531 130.778 561.572C131.108 561.974 131.326 562.161 131.661 562.768C131.532 563.614 132.396 566.145 132.734 567.21C133.955 566.882 135.408 566.468 136.241 567.331C136.944 567.757 139.222 572.407 139.526 573.331C138.412 574.943 133.869 575.363 131.096 576C132.012 577.628 132.929 579.26 133.847 580.896C136.446 580.279 139.05 579.681 141.659 579.1C142.134 579.16 142.625 579.578 143.056 579.812C144.051 581.677 145.433 583.942 146.032 585.679C145.038 587.305 140.643 587.712 138.02 588.339C139.074 590.207 140.235 592.285 141.083 594.01C140.989 594.239 141.035 594.484 140.927 594.709C140.733 595.186 139.649 595.299 138.954 595.478C137.079 595.961 134.837 596.85 133.003 596.79C131.593 595.645 130.102 592.686 128.907 590.659C126.791 591.22 124.678 591.795 122.571 592.386C121.347 592.729 120.374 593.204 119.414 591.923C118.579 591.319 116.367 587.238 115.854 586.305C115.986 586.047 115.992 585.591 116.22 585.4C118.957 584.648 121.703 583.92 124.456 583.214C123.477 581.579 122.499 579.949 121.523 578.324C119.299 578.884 117.078 579.459 114.862 580.047C113.731 580.347 112.797 580.743 111.905 579.911C110.863 579.243 108.424 574.825 108.019 573.827C108.559 573.166 109.312 572.821 110.712 572.47C110.688 572.433 110.665 572.395 110.641 572.358C109.751 571.807 106.839 568.552 106.297 567.63C106.357 567.529 106.417 567.427 106.478 567.325C106.679 566.895 107.663 566.764 108.38 566.582C110.188 566.124 112.32 565.441 114.01 565.442C114.38 565.697 114.91 565.794 115.235 566.041C116.547 567.473 117.854 568.912 119.155 570.355ZM218.705 547.807C219.002 549.132 219.299 550.454 219.594 551.77C224.52 551.505 229.443 551.291 234.359 551.127C234.091 549.602 233.821 548.071 233.549 546.534C228.597 546.907 223.647 547.332 218.705 547.807ZM476.81 574.538C477.807 574.766 481.512 575.404 481.804 575.926C482.354 576.408 480.384 581.037 479.583 582.178C478.081 582.463 475.818 581.473 474.373 581.096C474.336 580.931 474.303 580.91 474.127 580.788C474.504 579.372 475.297 577.839 475.859 576.279C476.012 575.857 476.112 575.112 476.47 574.824C476.584 574.729 476.697 574.633 476.81 574.538ZM334.145 561.597C337.096 561.781 340.045 561.983 342.992 562.202C343.093 562.469 343.434 562.769 343.199 563.282C343.076 563.551 342.644 563.918 342.485 564.174C341.503 565.754 340.582 567.21 339.579 568.669C338.35 570.454 337.088 572.363 336.023 574.147C335.462 575.087 334.994 576.285 334.19 576.815C333.452 577.302 332.438 577.17 331.318 577.104C329.257 576.983 326.675 577.166 324.869 576.641C324.853 576.525 324.838 576.408 324.822 576.292C324.524 575.56 326.355 573.148 326.721 572.557C328.254 570.053 329.66 567.516 331.237 565.082C331.683 564.284 332.131 563.484 332.582 562.684C332.991 562.177 333.654 561.998 334.145 561.597ZM359.076 563.572C361.245 563.78 363.413 563.998 365.579 564.224C366.644 564.335 367.913 564.341 368.41 564.881C368.989 565.511 368.849 566.593 368.996 567.545C369.319 569.65 369.468 571.805 369.715 573.971C369.876 575.385 369.974 576.874 370.147 578.339C370.212 578.892 370.509 579.536 369.841 580.166C369.321 580.498 368.298 580.226 367.595 580.149C365.522 579.922 363.447 579.704 361.371 579.495C360.234 578.973 360.389 577.515 360.187 576.239C359.73 573.371 359.324 570.335 358.791 567.441C358.611 566.457 358.226 564.88 358.7 563.773C358.852 563.71 358.95 563.668 359.076 563.572Z" fill="white"/>
<path fill-rule="evenodd" clip-rule="evenodd" d="M274.087 51.557L299.821 0L323.861 52.9186L381 59.2036L336.072 95.7386L348.417 150L299.821 121.181L249.59 148.988L263.135 94.6226L221 59.2036L274.087 51.557ZM277.542 56.144L299.417 12.3209L319.85 57.3015L368.419 62.6437L330.23 93.6985L340.723 139.821L299.417 115.325L256.721 138.961L268.233 92.7498L232.419 62.6437L277.542 56.144Z" fill="#6F3F15"/>
<path fill-rule="evenodd" clip-rule="evenodd" d="M277.542 56.1441L299.417 12.3209L319.85 57.3016L368.419 62.6437L330.23 93.6986L340.723 139.821L299.417 115.325L256.721 138.961L268.233 92.7499L232.419 62.6437L277.542 56.1441ZM280.998 60.7318L299.013 24.6418L315.84 61.6848L355.838 66.0841L324.387 91.6586L333.029 129.642L299.013 109.468L263.851 128.933L273.332 90.8775L243.837 66.0841L280.998 60.7318Z" fill="#FFD700"/>
<path fill-rule="evenodd" clip-rule="evenodd" d="M315.841 61.6848L355.84 66.0841L324.39 91.6585L333.031 129.642L299.013 109.468L263.851 128.933L273.332 90.8774L243.838 66.0841L280.999 60.7318L299.013 24.6418L315.841 61.6848Z" fill="#F70101"/>
</svg>
