<svg width="1800" height="1200" viewBox="0 0 1800 1200" fill="none" xmlns="http://www.w3.org/2000/svg">
<rect width="1800" height="1200" fill="#BC002D"/>
<g clip-path="url(#clip0_1_12)">
<mask id="mask0_1_12" style="mask-type:luminance" maskUnits="userSpaceOnUse" x="540" y="240" width="720" height="720">
<path d="M1260 600C1260 401.178 1098.82 240 900 240C701.178 240 540 401.178 540 600C540 798.823 701.178 960 900 960C1098.82 960 1260 798.823 1260 600Z" fill="white"/>
</mask>
<g mask="url(#mask0_1_12)">
<path d="M1260 600C1260 401.177 1098.82 240 900 240C701.177 240 540 401.177 540 600C540 798.823 701.177 960 900 960C1098.82 960 1260 798.823 1260 600Z" fill="white"/>
<path d="M900 1617.36C1196.25 1617.36 1436.4 1377.21 1436.4 1080.96C1436.4 784.714 1196.25 544.56 900 544.56C603.754 544.56 363.6 784.714 363.6 1080.96C363.6 1377.21 603.754 1617.36 900 1617.36Z" stroke="#BC002D" stroke-width="60"/>
<path d="M1242.72 1080.96C1242.72 1231.46 1202.81 1366.72 1139.43 1463.71C1075.92 1560.88 990.672 1617.36 899.64 1617.36C808.607 1617.36 723.363 1560.88 659.853 1463.71C596.469 1366.72 556.56 1231.46 556.56 1080.96C556.56 930.457 596.469 795.196 659.853 698.211C723.363 601.034 808.607 544.56 899.64 544.56C990.672 544.56 1075.92 601.034 1139.43 698.211C1202.81 795.196 1242.72 930.457 1242.72 1080.96Z" stroke="#BC002D" stroke-width="60"/>
<path d="M1049.04 1080.96C1049.04 1233.51 1030.06 1370.78 999.904 1469.2C984.783 1518.53 967.218 1556.89 948.709 1582.44C929.849 1608.47 912.988 1617.36 899.64 1617.36C886.292 1617.36 869.431 1608.47 850.571 1582.44C832.062 1556.89 814.497 1518.53 799.376 1469.2C769.218 1370.78 750.24 1233.51 750.24 1080.96C750.24 928.404 769.218 791.136 799.376 692.723C814.497 643.384 832.062 605.028 850.571 579.484C869.431 553.452 886.292 544.56 899.64 544.56C912.988 544.56 929.849 553.452 948.709 579.484C967.218 605.028 984.783 643.384 999.904 692.723C1030.06 791.136 1049.04 928.404 1049.04 1080.96Z" stroke="#BC002D" stroke-width="60"/>
<path d="M900 564.72C959.647 564.72 1008 516.367 1008 456.72C1008 397.073 959.647 348.72 900 348.72C840.353 348.72 792 397.073 792 456.72C792 516.367 840.353 564.72 900 564.72Z" fill="#BC002D"/>
</g>
</g>
<defs>
<clipPath id="clip0_1_12">
<rect width="720" height="720" fill="white" transform="translate(540 240)"/>
</clipPath>
</defs>
</svg>
