<svg width="1800" height="1200" viewBox="0 0 1800 1200" fill="none" xmlns="http://www.w3.org/2000/svg">
<path d="M0 0H1800V1200H0V0Z" fill="#CC0000"/>
<path d="M350 125.889L364.843 171.57L366.639 177.098H372.451H420.484L381.625 205.331L376.923 208.748L378.719 214.276L393.562 259.957L354.702 231.724L350 228.308L345.298 231.724L306.438 259.957L321.281 214.276L323.077 208.748L318.375 205.331L279.516 177.098H327.549H333.361L335.157 171.57L350 125.889Z" stroke="#FFD700" stroke-width="16"/>
<path fill-rule="evenodd" clip-rule="evenodd" d="M500 450C500 532.843 432.843 600 350 600C267.157 600 200 532.843 200 450C200 367.157 267.157 300 350 300C432.843 300 500 367.157 500 450ZM350 321.429C421.008 321.429 478.571 378.992 478.571 450C478.571 455.051 478.28 460.033 477.714 464.932C450.426 442.732 417.443 427.328 381.071 421.786C381.071 421.786 388.571 407.508 388.571 398.83C388.571 377.527 371.302 360.536 350 360.536C328.698 360.536 311.429 377.527 311.429 398.83C311.429 407.526 318.929 421.786 318.929 421.786C282.542 427.378 249.584 442.881 222.311 465.145C221.728 460.178 221.429 455.124 221.429 450C221.429 378.992 278.992 321.429 350 321.429ZM227.463 489.04C230.073 497.239 233.482 505.08 237.6 512.473C246.257 492.087 257.143 474.107 270.357 459.464C254.762 467.182 239.821 476.964 227.463 489.04ZM288.483 562.927C274.626 555.363 262.316 545.322 252.145 533.401C266.071 495.357 287.679 465 315.357 449.821C302.679 475.357 293.108 514.963 288.483 562.927ZM309.399 572.029C322.162 576.273 335.812 578.571 350 578.571C364.033 578.571 377.542 576.323 390.184 572.167C385.121 492.5 360.893 441.013 349.643 441.071C338.393 441.13 314.464 494.107 309.399 572.029ZM447.386 533.947C437.207 545.745 424.92 555.674 411.11 563.148C406.531 515.468 397.035 475.442 384.107 449.821C410.851 463.899 433.68 494.207 447.386 533.947ZM462.025 513.141C466.346 505.492 469.905 497.356 472.602 488.837C459.369 476.655 444.805 466.422 428.852 458.592C441.887 473.424 453.098 491.934 462.025 513.141Z" fill="#FFD700"/>
</svg>
