<svg width="603" height="706" viewBox="0 0 603 706" fill="none" xmlns="http://www.w3.org/2000/svg">
<path fill-rule="evenodd" clip-rule="evenodd" d="M538.623 360.312C538.623 525.242 432.554 658.944 301.712 658.944C170.87 658.944 64.8008 525.242 64.8008 360.312C64.8008 195.383 170.87 61.6808 301.712 61.6808C432.554 61.6808 538.623 195.383 538.623 360.312Z" fill="#750E0E"/>
<path d="M241.988 188.66L301.995 662.99M301.995 662.99L367.629 188.472M301.995 662.99L145.845 267.743M301.995 662.99L457.868 267.638M301.995 662.99L72.2575 475.771M301.995 662.99L530.316 481.82M301.995 662.99L72 522.96M301.995 662.99V173M301.995 662.99L532 522.949M301.995 662.99L522.134 430.818M301.995 662.99L486.95 325.138M301.995 662.99L414.382 220.638M507.345 378.208L302.005 662.99L95.2283 376.86M302.005 663L81.846 430.818M117.05 325.138L301.985 662.99L189.617 220.638" stroke="#F70101" stroke-width="11" stroke-linecap="round"/>
<path d="M310.5 651.5C387.82 651.5 442 643.32 442 566C442 488.68 379.32 426 302 426C224.68 426 162 488.68 162 566C162 643.32 233.18 651.5 310.5 651.5Z" fill="#F70101"/>
<path fill-rule="evenodd" clip-rule="evenodd" d="M100.81 371.395L100.436 392.442L5 379.499L5.7479 360.067L6.86992 345.328L12.1041 309.039L23.3208 261.465L34.0701 234.063L46.1749 208.918L63.2338 182.621L81.2738 159.871L107.119 135.186L133.198 114.094L154.603 100.508L160.071 101.291L165.119 106.403L217.09 80.9354L250.5 71L264.134 90.4711L255.92 126.987L217.09 143.246L186.477 164.661L157.968 191.832L153.481 197.727L158.716 203.392L157.594 208.089L148.294 218.267L136.61 235.123L117.962 271.045L108.381 305.538L103.053 337.223L100.81 371.395Z" fill="#FFD700"/>
<path d="M100.436 392.442L5 379.499L9.43474 426.615C27.4089 494.725 60.2754 542.765 136.964 598.157C236.061 655.51 274.405 672.176 382.466 698.157L472.6 615.804C317.231 577.569 156.778 520.511 117 449L100.436 392.442Z" fill="#FFD700"/>
<path fill-rule="evenodd" clip-rule="evenodd" d="M501.5 371L504 404.5L596.098 380.48L595.35 361.048L594.228 346.308L590.5 309.5L580 262.5L570 235.5L558.5 209.5L542 183L522.5 160L498 136L471 115L448 101L443 102.5L435.979 107.383L384.009 81.9157L341.5 71L326.5 87.5L331 121L384.009 144.226L414.621 165.641L445.5 192L450 197L445.5 204L448 207.5L456.5 218L468 235.5L485 272L492.717 306.519L498.045 338.204L501.5 371Z" fill="#FFD700"/>
<path d="M504 404.5L596.098 380.48L591.663 427.595C573.689 495.706 540.823 543.745 464.134 599.137C365.037 656.49 326.693 673.157 218.632 699.137L128.498 616.784C283.867 578.549 443.358 519.177 483.137 447.667L504 404.5Z" fill="#FFD700"/>
<path fill-rule="evenodd" clip-rule="evenodd" d="M530.811 194.136L521.049 194.504L514.856 185.662L514.48 173.872L525.93 174.978L532.687 184.004L530.811 194.136Z" fill="#6F3F15"/>
<path fill-rule="evenodd" clip-rule="evenodd" d="M542.073 213.478L532.687 211.82L525.554 199.478L534.564 200.583L536.816 189.715L544.702 203.162L542.073 213.478Z" fill="#6F3F15"/>
<path fill-rule="evenodd" clip-rule="evenodd" d="M542.637 229.874L537.004 218.268L545.266 221.031L549.395 206.662L556.34 224.715L553.147 234.11L542.637 229.874Z" fill="#6F3F15"/>
<path fill-rule="evenodd" clip-rule="evenodd" d="M563.473 255.848L553.711 253.821L546.39 238.531L556.716 240.926L560.657 231.9L567.226 245.348L563.473 255.848Z" fill="#6F3F15"/>
<path fill-rule="evenodd" clip-rule="evenodd" d="M443.884 105.094L440.174 102.988L443.809 99.6937C446.07 97.6436 450.373 98.9582 453.006 100.523C560.608 164.448 595.165 252.656 602.438 377.658L595.165 379.179C590.354 267.485 563.228 175.648 451.129 103.378C449.758 102.494 447.399 101.585 446.249 102.733L443.884 105.094Z" fill="#6F3F15"/>
<path fill-rule="evenodd" clip-rule="evenodd" d="M448.094 197.212L450.483 199.979L448.357 202.347C447.236 203.595 447.65 206.121 448.826 207.32C491.998 251.343 508.608 314.948 507.552 389.824L499.997 393.543C500.286 327.892 490.847 262.286 444.884 208.334C443.488 206.695 442.644 203.618 444.04 201.978L448.094 197.212Z" fill="#6F3F15"/>
<path fill-rule="evenodd" clip-rule="evenodd" d="M569.706 278.792L559.568 274.555L555.439 259.818L564.637 264.608L570.646 253.187L574.586 270.134L569.706 278.792Z" fill="#6F3F15"/>
<path fill-rule="evenodd" clip-rule="evenodd" d="M574.963 299.424L564.449 294.819L560.884 280.634L571.018 285.424L576.651 274.924L580.592 288.924L574.963 299.424Z" fill="#6F3F15"/>
<path fill-rule="evenodd" clip-rule="evenodd" d="M578.527 319.135L568.578 313.609L565.765 301.267L576.651 307.714L583.22 296.845L584.345 311.214L578.527 319.135Z" fill="#6F3F15"/>
<path fill-rule="evenodd" clip-rule="evenodd" d="M579.655 340.504L571.394 334.976L569.894 320.978L578.339 327.056L585.849 316.925L587.161 330.74L579.655 340.504Z" fill="#6F3F15"/>
<path fill-rule="evenodd" clip-rule="evenodd" d="M583.408 364.821L572.71 360.215L571.394 341.792L579.84 348.609L588.85 336.821L590.354 355.609L583.408 364.821Z" fill="#6F3F15"/>
<path fill-rule="evenodd" clip-rule="evenodd" d="M551.845 388.285L535.453 373.616L535.544 352.108L553.563 364.819L566.14 348.239L567.8 378.386L551.845 388.285ZM552.813 382.39L547.026 377.078L562.526 358.325L563.743 376.102L552.813 382.39ZM550.578 366.777L544.026 375.118L540.034 371.773L539.627 359.305L550.578 366.777ZM552.813 357.266L535.919 346.213L532.353 320.976L551.499 332.949L562.386 318.581L565.577 340.686L552.813 357.266ZM551.921 351.97L544.413 346.443L558.96 328.298L560.274 341.654L551.921 351.97ZM538.406 342.943L537.468 326.825L547.041 332.812L540.284 344.14L538.406 342.943ZM552.625 325.397L531.602 313.423L527.66 293.896L546.431 304.949L556.755 288.37L560.696 308.817L552.625 325.397ZM551.358 319.18L543.005 314.758L553.517 298.456L555.957 310.706L551.358 319.18ZM543.193 305.548L538.313 313.008L536.436 312.179L532.588 299.653L543.193 305.548ZM527.097 288.186L522.217 271.79L539.674 278.975L548.683 262.211L555.065 279.896L546.243 298.501L527.097 288.186ZM544.882 292.284L536.905 288.139L546.666 271.099L550.232 281.416L544.882 292.284ZM536.905 280.403L533.151 287.219L530.523 285.745L525.924 275.981L536.905 280.403ZM537.421 271.79L519.401 266.264L514.146 249.316L530.851 256.317L539.674 237.526L546.243 255.395L537.421 271.79ZM535.684 267.83L528.74 265.757L537.937 247.52L541.503 256.178L535.684 267.83ZM529.021 257.928L526.346 264.975L523.203 264.099L519.918 254.336L529.021 257.928Z" fill="#6F3F15"/>
<path fill-rule="evenodd" clip-rule="evenodd" d="M513.465 356.553L512.057 355.724L511.588 346.974L517.594 351.671L513.465 356.553ZM521.536 366.777L510.837 359.593L509.617 342.368L519.19 350.197L529.045 338.039L530.359 355.816L521.536 366.777ZM527.074 354.434L520.504 362.54L515.154 359.408L526.417 345.132L527.074 354.434ZM520.035 343.105L509.242 335.921L505.018 315.105L516.468 322.105L525.666 310.96L528.576 331.315L520.035 343.105ZM511.682 335.184L521.912 319.618L525.666 329.842L518.252 339.237L511.682 335.184ZM509.523 329.842L508.209 319.802L515.061 323.671L510.744 330.671L509.523 329.842ZM514.122 311.144L508.585 307.736L517.501 292.907L520.41 301.012L514.122 311.144ZM516.375 314.828L502.672 306.999L499.481 290.328L512.621 296.867L520.035 284.065L524.071 301.288L516.375 314.828ZM509.617 299.446L506.332 306.262L504.268 305.249L502.109 295.302L509.617 299.446ZM515.061 277.525L509.711 287.657L506.708 277.985L512.621 268.222L515.061 277.525ZM510.274 292.17L498.637 283.512L495.07 271.814L505.488 275.775L513.371 261.959L518.158 276.972L510.274 292.17ZM500.044 282.406L497.98 275.683L504.174 277.985L507.552 287.841L500.044 282.406ZM492.067 266.288L487.75 252.656L498.449 255.511L503.048 241.879L510.744 256.248L503.517 271.446L492.067 266.288ZM502.86 266.38L500.091 257.307L502.86 248.143L507.365 255.88L502.86 266.38ZM490.659 256.801L497.541 258.724L500.795 267.485L493.663 265.09L490.659 256.801Z" fill="#6F3F15"/>
<path fill-rule="evenodd" clip-rule="evenodd" d="M521.613 167.056L515.231 169.267C463.55 119.335 408.857 88.2398 355.674 76.1332L362.378 71.2648C433.358 91.907 483.175 126.269 521.613 167.056Z" fill="#6F3F15"/>
<path fill-rule="evenodd" clip-rule="evenodd" d="M507.63 182.991C457.686 130.762 400.725 97.6743 344.274 85.2363L350.618 80.1711C408.827 97.0153 462.936 128.444 506.128 169.359L507.63 182.991Z" fill="#6F3F15"/>
<path fill-rule="evenodd" clip-rule="evenodd" d="M524.333 210.914L520.767 223.256L507.253 217.914L499.932 206.861L500.87 199.493C459.522 147.279 400.875 112.166 335 94.8301L337 91.2941L339.067 90.1263C412 105.094 472.567 156.045 504.249 194.335L516.075 195.992L524.333 210.914ZM502.887 206.584L503.638 198.018L510.677 198.847L518.561 211.742L517.528 216.531L507.486 213.215L502.887 206.584Z" fill="#6F3F15"/>
<path fill-rule="evenodd" clip-rule="evenodd" d="M503.544 220.676L521 228.597L527.799 215.17L536.58 232.65L529.072 250.15L504.67 236.703C496.925 218.703 482.302 196.558 469.324 182.774C433.514 144.74 388.498 120.966 339.067 107.076L335 101C390 112.187 436.389 142.615 465.044 171.357C481.923 188.287 493.159 203.609 503.544 220.676ZM507.345 231.959L503.872 223.577L519.546 230.67L516.542 236.749L507.345 231.959ZM520.484 238.775L527.523 224.499L532.215 233.433L528.086 242.736L520.484 238.775Z" fill="#6F3F15"/>
<path fill-rule="evenodd" clip-rule="evenodd" d="M500.305 236.104L495.612 249.92L484.162 246.604C450.845 193.149 404.36 149.232 343 129.195L341 124.037C389.5 135.5 436.611 169.65 481.347 231.683L483.787 223.762C446.659 167.94 393.5 135.5 341 117.674L339.067 112.187C397.5 127 453.313 163.479 487.729 221.551L494.486 224.499L500.305 236.104ZM487.823 243.105L483.036 235.92L486.04 226.986L490.92 228.736L495.425 236.933L492.797 243.934L487.823 243.105Z" fill="#6F3F15"/>
<path fill-rule="evenodd" clip-rule="evenodd" d="M83.9339 167.176L91.3156 168.406C142.996 118.474 192.817 88.3728 246 76.2662L241.4 71.3845C170.42 92.0267 122.372 126.389 83.9339 167.176Z" fill="#6F3F15"/>
<path fill-rule="evenodd" clip-rule="evenodd" d="M96.9179 183.111C146.862 130.882 201.549 97.7759 258 85.3379L252 80.3358C193.792 97.18 141.612 128.564 98.4194 169.479L96.9179 183.111Z" fill="#6F3F15"/>
<path fill-rule="evenodd" clip-rule="evenodd" d="M160.665 105.214L164.375 103.108L160.74 99.8135C158.479 97.7634 154.176 99.0779 151.543 100.642C45.5893 156.98 4.02637 256 0 378.686L9.6345 382.25C9.6345 278.912 41.3214 175.768 153.42 103.498C154.791 102.613 157.15 101.704 158.3 102.853L160.665 105.214Z" fill="#6F3F15"/>
<path fill-rule="evenodd" clip-rule="evenodd" d="M80.2134 211.034L83.7798 223.376L97.2945 218.034L104.615 206.981L103.677 199.612C145.025 147.399 197.153 112.166 263.028 94.8301L263.962 90.6955L262.214 89.2996C169.168 118.704 131.98 156.165 100.298 194.454L88.4723 196.112L80.2134 211.034ZM101.66 206.703L100.909 198.137L93.8697 198.966L85.9861 211.861L87.0187 216.651L97.0607 213.335L101.66 206.703Z" fill="#6F3F15"/>
<path fill-rule="evenodd" clip-rule="evenodd" d="M101.003 220.796L83.546 228.717L76.7475 215.29L67.9665 232.77L75.4748 250.27L99.8764 236.822C107.621 218.823 122.244 196.678 135.222 182.894C171.032 144.86 210.831 120.966 260.263 107.076L261.388 102.091C202.945 117.518 168.157 142.734 139.502 171.477C122.624 188.407 111.387 203.728 101.003 220.796ZM97.2015 232.079L100.674 223.697L85.0007 230.789L88.0041 236.868L97.2015 232.079ZM84.0625 238.895L77.0235 224.618L72.3309 233.553L76.4602 242.855L84.0625 238.895Z" fill="#6F3F15"/>
<path fill-rule="evenodd" clip-rule="evenodd" d="M104.241 236.224L108.934 250.04L120.384 246.724C130.745 230.1 141.871 214.387 154.129 200.024C154.873 199.152 155.621 198.284 156.374 197.422C183.087 166.827 214.163 142.622 255.282 129.195L256.408 124.037C211.672 136.945 167.936 169.77 123.199 231.803L120.759 223.881C157.888 168.06 204.72 137.136 257.869 117.674L259.108 112.187C201.161 131.933 151.233 163.598 116.817 221.671L110.06 224.618L104.241 236.224ZM116.723 243.224L121.51 236.04L118.507 227.105L113.626 228.855L109.121 237.053L111.749 244.053L116.723 243.224Z" fill="#6F3F15"/>
<path fill-rule="evenodd" clip-rule="evenodd" d="M73.7371 194.256L83.4978 194.624L89.6923 185.782L90.0676 173.992L78.6177 175.097L71.8603 184.124L73.7371 194.256Z" fill="#6F3F15"/>
<path fill-rule="evenodd" clip-rule="evenodd" d="M62.4748 213.598L71.8603 211.94L78.9929 199.598L69.9831 200.703L67.7307 189.834L59.8471 203.282L62.4748 213.598Z" fill="#6F3F15"/>
<path fill-rule="evenodd" clip-rule="evenodd" d="M61.9119 229.993L67.543 218.388L59.2838 221.151L55.1546 206.782L48.2096 224.835L51.4002 234.23L61.9119 229.993Z" fill="#6F3F15"/>
<path fill-rule="evenodd" clip-rule="evenodd" d="M41.0766 255.967L50.8373 253.941L58.1576 238.651L47.8339 241.046L43.8923 232.019L37.3226 245.467L41.0766 255.967Z" fill="#6F3F15"/>
<path fill-rule="evenodd" clip-rule="evenodd" d="M34.8431 278.912L44.9792 274.675L49.1088 259.938L39.9113 264.727L33.9046 253.306L29.9629 270.254L34.8431 278.912Z" fill="#6F3F15"/>
<path fill-rule="evenodd" clip-rule="evenodd" d="M29.5873 299.544L40.099 294.939L43.6653 280.754L33.5293 285.544L27.8981 275.044L23.9562 289.044L29.5873 299.544Z" fill="#6F3F15"/>
<path fill-rule="evenodd" clip-rule="evenodd" d="M26.021 319.255L35.9694 313.729L38.7851 301.386L27.8981 307.834L21.3284 296.965L20.2022 311.334L26.021 319.255Z" fill="#6F3F15"/>
<path fill-rule="evenodd" clip-rule="evenodd" d="M24.8947 340.623L33.154 335.098L34.6555 321.097L26.2086 327.175L18.7007 317.044L17.3868 330.861L24.8947 340.623Z" fill="#6F3F15"/>
<path fill-rule="evenodd" clip-rule="evenodd" d="M21.1408 364.939L31.8397 360.333L33.154 341.914L24.7071 348.73L15.6973 336.94L14.1958 355.731L21.1408 364.939Z" fill="#6F3F15"/>
<path fill-rule="evenodd" clip-rule="evenodd" d="M13.4448 361.994L12.4433 380.606L20.2323 385.965L30.2129 382.082L31.8397 365.123L21.1408 371.571L13.4448 361.994Z" fill="#6F3F15"/>
<path fill-rule="evenodd" clip-rule="evenodd" d="M51.9242 388.083L68.316 373.414L69.0055 352.23L51.9242 364.939L38.4094 348.361L35.9694 378.184L51.9242 388.083ZM51.9859 381.102L55.9129 376.224L42.9615 359.092L41.1784 373.461L51.9859 381.102ZM55.4437 365.631L60.5118 373.921L63.5152 371.895L64.9227 358.447L55.4437 365.631ZM51.7365 357.388L68.6299 346.335L72.1966 321.098L53.0504 333.071L42.1638 318.703L38.9727 340.808L51.7365 357.388ZM52.6283 352.092L60.1362 346.565L45.5893 328.42L44.2754 341.776L52.6283 352.092ZM66.143 343.065L67.0816 326.946L57.5085 332.933L64.2658 344.262L66.143 343.065ZM51.9242 325.519L72.9471 313.545L76.8891 294.018L58.1186 305.071L47.7945 288.492L43.8529 308.939L51.9242 325.519ZM53.1912 319.301L61.5441 314.88L51.0327 298.577L48.5927 310.827L53.1912 319.301ZM61.3564 305.67L66.2366 313.13L68.1138 312.301L71.9617 299.775L61.3564 305.67ZM77.452 288.307L82.3326 271.912L64.8759 279.097L55.8661 262.333L49.4841 280.018L58.3062 298.623L77.452 288.307ZM59.6673 292.406L67.6445 288.261L57.8838 271.221L54.3174 281.538L59.6673 292.406ZM67.6448 280.524L71.3988 287.34L74.0266 285.866L78.6251 276.103L67.6448 280.524ZM67.1284 271.912L85.148 266.386L90.4038 249.438L73.6981 256.438L64.8759 237.648L58.3062 255.517L67.1284 271.912ZM68.8651 267.952L75.8097 265.879L66.6123 247.642L63.0459 256.3L68.8651 267.952ZM75.5281 258.05L78.203 265.096L81.3468 264.221L84.6319 254.458L75.5281 258.05Z" fill="#6F3F15"/>
<path fill-rule="evenodd" clip-rule="evenodd" d="M91.0842 356.675L92.492 355.846L92.9613 347.096L86.9549 351.793L91.0842 356.675ZM83.0129 366.899L93.7122 359.714L94.9321 342.49L85.359 350.319L75.5047 338.161L74.1908 355.938L83.0129 366.899ZM77.4758 354.556L84.0452 362.662L89.395 359.53L78.1327 345.253L77.4758 354.556ZM84.5145 343.227L95.3074 336.043L99.531 315.227L88.0811 322.227L78.8833 311.082L75.974 331.437L84.5145 343.227ZM85.7347 371.688L92.7737 382.188L93.243 365.333L85.7347 371.688ZM92.8673 335.306L82.6376 319.74L78.8833 329.964L86.2976 339.359L92.8673 335.306ZM95.0261 329.964L96.34 319.924L89.4886 323.792L93.8059 330.792L95.0261 329.964ZM90.4272 311.266L95.9647 307.858L87.0485 293.029L84.1392 301.134L90.4272 311.266ZM88.1748 314.95L101.877 307.121L105.068 290.449L91.9287 296.989L84.5145 284.186L80.4789 301.41L88.1748 314.95ZM94.9321 299.568L98.2172 306.384L100.282 305.371L102.44 295.423L94.9321 299.568ZM89.4886 277.647L94.8381 287.779L97.8415 278.107L91.9287 268.344L89.4886 277.647ZM94.2752 292.292L105.913 283.634L109.479 271.936L99.0618 275.897L91.1782 262.081L86.3916 277.094L94.2752 292.292ZM104.505 282.528L106.57 275.805L100.376 278.107L96.9969 287.963L104.505 282.528ZM112.482 266.41L116.8 252.778L106.101 255.633L101.502 242.001L93.8059 256.37L101.033 271.568L112.482 266.41ZM101.689 266.501L104.458 257.429L101.689 248.264L97.1846 256.001L101.689 266.501ZM113.89 256.923L107.008 258.846L103.754 267.607L110.887 265.212L113.89 256.923Z" fill="#6F3F15"/>
<path d="M12.9433 388.083L15.0264 405.24L24.5264 409.431L34.0264 404.529L30.5264 387.863C27.8051 388.59 22.2532 391.294 21.5264 391.294C20.7996 391.294 15.5396 388.811 12.9433 388.083Z" fill="#6F3F15"/>
<path d="M9.6345 382.25L0 378.686C4.02637 448.157 24.5264 505.02 96.34 566.784C115.552 582.32 134.239 595.953 153.073 608.106C156.205 610.127 159.341 612.107 162.484 614.049C195.209 634.257 228.708 650.238 266.467 664.179C269.48 665.291 272.52 666.39 275.589 667.478C281.294 669.5 287.099 671.48 293.016 673.427C297.01 674.741 301.054 676.04 305.153 677.325C329.882 685.081 356.584 692.354 386.026 699.627L479.026 614.824C471.182 612.919 463.245 610.959 455.234 608.938C451.764 608.062 448.28 607.175 444.785 606.276C423.738 600.863 402.261 595.015 380.734 588.626C375.383 587.038 370.029 585.417 364.677 583.76C358.395 581.815 352.117 579.822 345.852 577.778C336.151 574.613 326.481 571.326 316.879 567.907C313.256 566.616 309.642 565.307 306.039 563.979C252.847 544.364 202.149 520.538 160.026 490.804C124.026 461.882 115.026 440.804 104.328 392.465C104.328 325.519 113.7 262.405 159.663 208.453C161.059 206.814 161.903 203.738 160.507 202.098L156.452 197.332C156.426 197.362 156.4 197.392 156.374 197.422L154.129 200.024C154.107 200.049 154.086 200.073 154.064 200.098L156.19 202.466C157.311 203.715 156.897 206.241 155.721 207.44C112.549 251.462 95.44 316.981 96.4956 391.857C100.026 429.039 113.526 466.784 154.526 498.647C211.417 532.719 257.729 556.344 315.901 577.368C320.266 578.946 324.698 580.509 329.207 582.061C331.637 582.897 334.088 583.73 336.564 584.56C341.586 586.244 346.706 587.917 351.936 589.583C367.339 594.49 383.694 599.335 401.317 604.23C405.692 605.445 410.146 606.664 414.682 607.887C429.076 611.767 444.306 615.695 460.526 619.725L382.526 689.824C343.749 679.993 310.542 669.807 280.219 658.221C279.015 657.762 277.816 657.299 276.622 656.835C266.167 652.772 256.046 648.534 246.149 644.08C240.668 641.613 235.255 639.079 229.891 636.471C220.18 631.75 210.63 626.786 201.127 621.535C197.994 619.803 194.866 618.041 191.739 616.245C161.111 598.659 130.585 577.928 96.34 552.569C41.1784 503.94 20.2323 459.922 9.6345 382.25Z" fill="#6F3F15"/>
<path d="M507.552 389.824L499.997 393.543C494.275 465.532 418.73 521.918 306.039 563.979C309.642 565.307 313.256 566.616 316.879 567.907C444.6 519.757 502.087 462.87 507.552 389.824Z" fill="#6F3F15"/>
<path d="M162.484 614.049C159.341 612.107 156.205 610.127 153.073 608.106C142.689 610.424 132.169 612.663 121.526 614.824L219.526 706C249.391 696.612 277.993 687.137 305.153 677.325C301.054 676.04 297.01 674.741 293.016 673.427C269.892 680.643 245.401 687.262 219.526 693.255L138.526 619.725C146.663 617.845 154.648 615.953 162.484 614.049Z" fill="#6F3F15"/>
<path d="M602.438 377.658L595.165 379.179C589.472 468.875 540.364 546.64 444.785 606.276C448.28 607.175 451.764 608.062 455.234 608.938C544.095 555.122 598.18 484.941 602.438 377.658Z" fill="#6F3F15"/>
<path d="M35.9694 384.984L40.0264 403.059L57.5085 409.431L72.974 395.706L70.0055 378.686L53.1912 393.445L35.9694 384.984Z" fill="#6F3F15"/>
<path d="M74.1908 361.681L78.1327 395.706L86.9549 404.529L92.9613 395.706L91.8589 386.945L74.1908 361.681Z" fill="#6F3F15"/>
<path d="M590.826 388.285L588.743 405.441L579.243 409.633L569.743 404.731L573.243 388.064C575.964 388.792 581.516 391.495 582.243 391.495C582.97 391.495 588.23 389.012 590.826 388.285Z" fill="#6F3F15"/>
<path d="M567.8 385.186L563.743 403.26L546.261 409.633L530.796 395.907L533.764 378.887L550.578 393.646L567.8 385.186Z" fill="#6F3F15"/>
<path d="M529.579 361.882L525.637 395.907L516.815 404.731L510.808 395.907L511.911 387.146L529.579 361.882Z" fill="#6F3F15"/>
<path fill-rule="evenodd" clip-rule="evenodd" d="M518.035 371.89L510.996 382.39L510.527 365.534L518.035 371.89Z" fill="#6F3F15"/>
<path d="M572.71 365.534L573.243 384.431L582.243 388.064L590.354 385.186V362.54L583.408 369.235L572.71 365.534Z" fill="#6F3F15"/>
<path d="M265.299 578.064C269.894 576.591 274.441 575.098 278.938 573.583C174.148 533.724 92.2249 480.488 92.9613 409.431L86.1046 416.294L74.1908 405.24L57.5085 419.235L38.4094 412.373L27.5 419.235L20.2323 416.294C35.9663 490.119 97.2254 553.543 179.091 602.062C183.585 600.976 188.049 599.874 192.484 598.757C121.477 559.499 60.2787 506.132 30.5264 429.529L38.9727 424.137L53.4437 429.039L63.8172 424.137L74.1908 419.235L86.9549 427.078C93.5856 481.246 158.401 535.414 265.299 578.064Z" fill="#6F3F15"/>
<path d="M289.781 577.632C285.264 579.177 280.67 580.713 275.998 582.24C280.101 583.807 284.263 585.358 288.481 586.891C292.967 588.521 297.517 590.132 302.131 591.722C307.672 593.632 313.306 595.513 319.029 597.363C321.86 598.278 324.714 599.186 327.589 600.086C333.222 601.85 338.938 603.584 344.737 605.288C356.169 608.647 367.921 611.889 379.981 615.004C384.854 616.263 389.777 617.501 394.75 618.717C401.4 620.344 408.139 621.934 414.964 623.483C418.062 621.829 421.119 620.158 424.136 618.472C417.669 616.815 411.191 615.122 404.714 613.39C400.084 612.152 395.453 610.894 390.827 609.617C373.836 604.925 356.903 599.967 340.231 594.727C336.136 593.44 332.057 592.136 327.997 590.815C323.995 589.513 320.011 588.194 316.048 586.859C311.459 585.312 306.897 583.742 302.369 582.15C298.143 580.664 293.946 579.158 289.781 577.632Z" fill="#6F3F15"/>
<path d="M278.938 573.583C274.441 575.098 269.894 576.591 265.299 578.064C268.82 579.469 272.386 580.861 275.998 582.24C280.67 580.713 285.264 579.177 289.781 577.632C286.142 576.298 282.526 574.948 278.938 573.583Z" fill="#6F3F15"/>
<path d="M335 659.123C324.553 655.633 314.027 651.982 303.482 648.144C303.315 648.083 303.149 648.023 302.982 647.962C302.768 647.884 302.554 647.806 302.339 647.727C291.572 643.795 280.787 639.668 270.047 635.318C264.48 633.063 258.925 630.749 253.39 628.371C243.794 624.248 234.261 619.934 224.836 615.411C221.188 613.66 217.556 611.877 213.942 610.062C209.98 608.072 206.041 606.042 202.127 603.972C197.647 605.165 193.112 606.352 188.522 607.535C192.346 609.707 196.211 611.848 200.115 613.956C203.438 615.751 206.79 617.522 210.168 619.27C219.598 624.15 229.237 628.846 239.051 633.353C244.494 635.852 249.991 638.293 255.536 640.675C265.806 645.086 276.243 649.294 286.812 653.293C287.664 653.615 288.518 653.936 289.372 654.256C299.232 657.948 309.204 661.457 319.26 664.78C324.586 662.928 329.832 661.042 335 659.123Z" fill="#6F3F15"/>
<path d="M192.484 598.757C188.049 599.874 183.585 600.976 179.091 602.062C182.205 603.908 185.35 605.732 188.522 607.535C193.112 606.352 197.647 605.165 202.127 603.972C198.894 602.262 195.679 600.524 192.484 598.757Z" fill="#6F3F15"/>
<path d="M344.749 662.341C339.815 664.303 334.825 666.248 329.779 668.178C347.19 673.674 364.821 678.61 382.526 682.961L444.785 623.647C441.266 622.784 437.741 621.91 434.211 621.025C431.279 622.627 428.315 624.215 425.318 625.789C426.543 626.057 427.77 626.323 429 626.588L407.5 646.621L396.5 656.87L380 673.427C368.437 669.909 356.657 666.226 344.749 662.341Z" fill="#6F3F15"/>
<path d="M335 659.123C329.832 661.042 324.586 662.928 319.26 664.78C322.757 665.935 326.263 667.068 329.779 668.178C334.825 666.248 339.815 664.303 344.749 662.341C341.508 661.283 338.258 660.211 335 659.123Z" fill="#6F3F15"/>
<path d="M424.136 618.472C421.119 620.158 418.062 621.829 414.964 623.483C418.394 624.262 421.845 625.031 425.318 625.789C428.315 624.215 431.279 622.627 434.211 621.025C430.856 620.184 427.498 619.333 424.136 618.472Z" fill="#6F3F15"/>
<path d="M225.541 589.975C230.007 588.724 234.436 587.456 238.827 586.171C160.871 550.732 93.416 502.191 63.8172 424.137L53.4437 429.039C82.81 492.804 120.923 539.553 225.541 589.975Z" fill="#6F3F15"/>
<path d="M235.513 594.698C240.078 593.374 244.579 592.043 249.017 590.706C245.602 589.218 242.205 587.707 238.827 586.171C234.436 587.456 230.007 588.724 225.541 589.975C228.8 591.546 232.124 593.12 235.513 594.698Z" fill="#6F3F15"/>
<path d="M366.463 646.608C372.279 644.132 377.982 641.609 383.571 639.039C377.551 637.126 371.499 635.195 365.425 633.239C360.553 631.67 355.668 630.085 350.774 628.479C350.414 628.361 350.054 628.243 349.694 628.125C338.79 624.542 327.85 620.859 316.94 617.038C311.367 615.087 305.803 613.1 300.254 611.071C291.399 607.834 282.585 604.491 273.848 601.022C269.569 599.324 265.308 597.595 261.07 595.833C257.031 594.155 253.012 592.446 249.017 590.706C244.579 592.043 240.078 593.374 235.513 594.698C239.379 596.498 243.331 598.304 247.371 600.115C251.33 601.89 255.373 603.672 259.505 605.46C267.954 609.117 276.771 612.803 285.974 616.526C291.252 618.661 296.657 620.808 302.194 622.969C312.317 626.919 322.88 630.915 333.906 634.964C334.168 635.061 334.432 635.157 334.695 635.254C344.884 638.99 355.467 642.773 366.463 646.608Z" fill="#6F3F15"/>
<path d="M375.262 649.657C381.127 647.104 386.9 644.517 392.578 641.895C389.585 640.947 386.582 639.995 383.571 639.039C377.982 641.609 372.279 644.132 366.463 646.608C369.367 647.621 372.3 648.637 375.262 649.657Z" fill="#6F3F15"/>
<path d="M396.5 656.87L407.5 646.621C402.557 645.054 397.581 643.48 392.578 641.895C386.9 644.517 381.127 647.104 375.262 649.657C382.181 652.04 389.259 654.444 396.5 656.87Z" fill="#6F3F15"/>
<path d="M337.565 578.897C332.967 577.434 328.416 575.951 323.916 574.447C347.338 565.478 369.614 555.841 390.074 545.49C429.427 525.58 462.063 503.025 483.22 477.48C500.233 456.939 509.822 434.465 509.51 409.879L516.382 416.727L528.27 405.646L544.985 419.604L564.068 412.698L574.993 419.536L582.254 416.579C566.692 490.439 505.581 554 423.829 602.702C419.333 601.626 414.865 600.534 410.428 599.427C481.343 560.01 542.417 506.506 571.991 429.837L563.532 424.464L549.073 429.398L538.688 424.52L528.303 419.641L515.557 427.513C514.135 439.362 509.929 451.217 503.11 462.958C480.299 502.229 428.237 540.218 353.216 572.402C348.105 574.594 342.887 576.76 337.565 578.897Z" fill="#6F3F15"/>
<path fill-rule="evenodd" clip-rule="evenodd" d="M323.916 574.447C327.114 575.533 330.279 576.551 333.513 577.59C334.849 578.02 336.198 578.453 337.565 578.897C334.85 579.941 332.062 580.997 329.207 582.061C324.698 580.509 320.266 578.946 315.901 577.368C318.622 576.388 321.296 575.414 323.916 574.447ZM302.369 582.15C306.897 583.742 311.459 585.312 316.048 586.859L316.253 586.786C311.668 588.423 306.953 590.072 302.131 591.722C297.517 590.132 292.967 588.521 288.481 586.891C293.191 585.309 297.828 583.726 302.369 582.15ZM261.07 595.833C256.521 597.275 251.948 598.705 247.371 600.115C251.33 601.89 255.373 603.672 259.505 605.46C264.328 603.998 269.115 602.517 273.848 601.022C269.569 599.324 265.308 597.595 261.07 595.833ZM200.115 613.956C204.665 612.698 209.281 611.397 213.942 610.062C217.556 611.877 221.188 613.66 224.836 615.411C219.936 616.737 215.041 618.026 210.168 619.27C206.79 617.522 203.438 615.751 200.115 613.956ZM191.739 616.245C187.35 617.43 183.038 618.571 178.823 619.66C181.843 621.34 184.904 623.004 188.006 624.651C192.343 623.656 196.721 622.616 201.127 621.535C197.994 619.803 194.866 618.041 191.739 616.245Z" fill="#6F3F15"/>
<path d="M380.734 588.626C472.461 543.589 522.843 496.434 549.073 429.398L532.216 441.707C508.346 496.418 456.201 541.031 364.677 583.76C370.029 585.417 375.383 587.038 380.734 588.626Z" fill="#6F3F15"/>
<path fill-rule="evenodd" clip-rule="evenodd" d="M327.997 590.815L319.029 597.363C321.86 598.278 324.714 599.186 327.589 600.086C331.875 598.302 336.089 596.515 340.231 594.727C336.136 593.44 332.057 592.136 327.997 590.815ZM336.564 584.56C341.586 586.244 346.706 587.917 351.936 589.583C356.265 587.646 360.512 585.705 364.677 583.76C358.395 581.815 352.117 579.822 345.852 577.778L336.564 584.56ZM532.216 441.707L549.073 429.398L538.688 424.52C536.821 430.361 534.667 436.087 532.216 441.707ZM353.216 572.402L390.074 545.49C429.427 525.58 462.063 503.025 483.22 477.48L503.11 462.958C480.299 502.229 428.237 540.218 353.216 572.402ZM253.39 628.371C248.677 630.03 243.898 631.69 239.051 633.353C244.494 635.852 249.991 638.293 255.536 640.675C260.445 638.882 265.282 637.097 270.047 635.318C264.48 633.063 258.925 630.749 253.39 628.371ZM229.891 636.471C235.255 639.079 240.668 641.613 246.149 644.08L246.585 643.922C233.731 648.556 220.39 653.242 206.548 657.997L195.524 647.772C207.327 643.99 218.78 640.225 229.891 636.471Z" fill="#6F3F15"/>
<path fill-rule="evenodd" clip-rule="evenodd" d="M158.186 624.882L220.582 684.056L266.467 664.179L280.219 658.221C279.015 657.762 277.816 657.299 276.622 656.835C260.719 662.305 243.105 668.105 223.086 674.517L206.548 657.997L195.524 647.772L174.978 627.786L188.006 624.651C184.904 623.004 181.843 621.34 178.823 619.66L158.186 624.882ZM303.482 648.144L289.372 654.256C288.518 653.936 287.664 653.615 286.812 653.293C292.172 651.408 297.337 649.557 302.339 647.727C302.554 647.806 302.768 647.884 302.982 647.962L303.482 648.144ZM334.695 635.254L333.906 634.964L349.694 628.125C350.054 628.243 350.414 628.361 350.774 628.479C344.884 631.042 338.887 633.559 332.7 636.065C333.367 635.794 334.032 635.524 334.695 635.254ZM379.981 615.004C384.854 616.263 389.777 617.501 394.75 618.717C398.044 616.987 401.361 615.213 404.714 613.39C400.084 612.152 395.453 610.894 390.827 609.617C387.186 611.458 383.577 613.251 379.981 615.004ZM401.317 604.23C405.692 605.445 410.146 606.664 414.682 607.887C417.693 606.201 420.739 604.474 423.829 602.702C419.333 601.626 414.865 600.534 410.428 599.427C407.351 601.067 404.317 602.667 401.317 604.23Z" fill="#6F3F15"/>
<path d="M275.589 667.478C272.52 666.39 269.48 665.291 266.467 664.179L220.582 684.056C241 678.179 259.107 672.748 275.589 667.478Z" fill="#6F3F15"/>
<path d="M337.257 305.091C337.816 303.86 338.442 302.425 339.068 300.87C340.947 296.205 343.071 289.909 343.071 284.83C343.071 261.561 324.202 243.036 301 243.036C277.798 243.036 258.929 261.561 258.929 284.83C258.929 289.918 261.052 296.213 262.932 300.877C263.559 302.432 264.184 303.867 264.744 305.098C231.775 310.962 201.71 324.839 176.206 344.392C176.022 341.619 175.929 338.821 175.929 336C175.929 266.925 231.925 210.929 301 210.929C370.075 210.929 426.071 266.925 426.071 336C426.071 338.75 425.983 341.48 425.808 344.185C400.29 324.694 370.208 310.906 337.257 305.091ZM301 489.5C385.776 489.5 454.5 420.776 454.5 336C454.5 251.224 385.776 182.5 301 182.5C216.224 182.5 147.5 251.224 147.5 336C147.5 420.776 216.224 489.5 301 489.5ZM207.537 357.073C200.288 367.161 193.902 378.341 188.346 390.399C186.104 385.764 184.139 380.971 182.474 376.04C190.023 368.91 198.521 362.602 207.537 357.073ZM207.148 418.674C219.194 386.605 236.69 360.614 258.405 344.983C248.336 369.657 240.726 403.547 236.542 443.205C225.524 436.565 215.611 428.274 207.148 418.674ZM301 461.071C288.142 461.071 275.744 459.132 264.078 455.533C266.745 418.06 273.785 386.637 281.506 364.505C285.466 353.155 289.567 344.358 293.282 338.467C295.145 335.512 296.834 333.412 298.265 332.092C299.785 330.689 300.569 330.572 300.661 330.571C300.778 330.571 301.567 330.687 303.079 332.034C304.509 333.307 306.203 335.345 308.075 338.232C311.808 343.987 315.941 352.633 319.935 363.892C327.727 385.857 334.842 417.348 337.51 455.66C325.964 459.178 313.706 461.071 301 461.071ZM394.408 419.175C385.939 428.679 376.042 436.882 365.055 443.447C360.899 403.876 353.308 369.623 343.04 344.79C364.277 359.745 382.562 385.818 394.408 419.175ZM393.389 356.112C402.63 361.87 411.353 368.501 419.573 375.902C417.815 381.126 415.722 386.197 413.318 391.089C407.501 378.327 400.826 366.589 393.389 356.112Z" fill="#FFD700" stroke="#6F3F15" stroke-width="7" stroke-miterlimit="16"/>
<path d="M289 503.5C186 503.5 115.5 513 68 535C54.2662 541.361 46 513.5 36.0001 495C24 540 88.525 605.594 115.5 624C206.5 589 373 585 478.5 623.5C505.476 605.094 579.293 539.296 563.692 495C560.28 524.126 535.065 546.39 519.5 538.5C479.199 518.071 392 503.5 289 503.5Z" fill="#F70101" stroke="#6F3F15" stroke-width="7"/>
<path fill-rule="evenodd" clip-rule="evenodd" d="M274.087 51.557L299.821 0L323.861 52.9186L381 59.2036L336.072 95.7386L348.417 150L299.821 121.181L249.59 148.988L263.135 94.6226L221 59.2036L274.087 51.557ZM277.542 56.144L299.417 12.3209L319.85 57.3015L368.419 62.6437L330.23 93.6985L340.723 139.821L299.417 115.325L256.721 138.961L268.233 92.7498L232.419 62.6437L277.542 56.144Z" fill="#6F3F15"/>
<path fill-rule="evenodd" clip-rule="evenodd" d="M277.542 56.1441L299.417 12.3209L319.85 57.3016L368.419 62.6437L330.23 93.6986L340.723 139.821L299.417 115.325L256.721 138.961L268.233 92.7499L232.419 62.6437L277.542 56.1441ZM280.998 60.7318L299.013 24.6418L315.84 61.6848L355.838 66.0841L324.387 91.6586L333.029 129.642L299.013 109.468L263.851 128.933L273.332 90.8775L243.837 66.0841L280.998 60.7318Z" fill="#FFD700"/>
<path fill-rule="evenodd" clip-rule="evenodd" d="M315.841 61.6848L355.84 66.0841L324.39 91.6585L333.031 129.642L299.013 109.468L263.851 128.933L273.332 90.8774L243.838 66.0841L280.999 60.7318L299.013 24.6418L315.841 61.6848Z" fill="#F70101"/>
<path fill-rule="evenodd" clip-rule="evenodd" d="M528.903 552.296C528.719 552.738 528.466 553.129 528.145 553.467C510.642 571.933 493.967 590.618 478.143 609.486C477.853 609.832 477.474 610.172 477.007 610.507C476.54 610.841 476.177 610.963 475.915 610.871C474.061 610.216 472.198 609.573 470.326 608.94C465.567 607.33 460.752 605.79 455.884 604.318C455.626 604.241 455.566 603.979 455.702 603.535C455.838 603.091 456.034 602.69 456.29 602.332C470.281 582.788 485.041 563.372 500.556 544.112C500.84 543.759 501.237 543.415 501.747 543.081C502.255 542.747 502.677 542.632 503.008 542.735C505.12 543.398 507.223 544.071 509.318 544.755C509.663 544.867 509.764 545.15 509.623 545.601C509.482 546.052 509.254 546.449 508.942 546.793C496.033 562.027 483.624 577.373 471.721 592.816C474.812 593.801 477.882 594.811 480.928 595.849C493.429 580.63 506.458 565.523 520.005 550.544C520.331 550.207 520.757 549.878 521.281 549.557C521.805 549.237 522.23 549.134 522.55 549.247C524.602 549.971 526.644 550.705 528.676 551.449C529.01 551.571 529.086 551.854 528.903 552.296ZM496.662 542.914C490.419 550.851 484.301 558.813 478.308 566.798C478.061 567.129 477.247 567.751 475.88 568.672C474.513 569.594 473.67 570.025 473.336 569.96C473.665 570.056 473.754 570.661 473.597 571.773C473.439 572.884 473.163 573.702 472.777 574.224C466.095 583.262 459.574 592.328 453.216 601.419C452.965 601.778 452.623 602.137 452.193 602.494C451.763 602.851 451.419 602.993 451.16 602.917C449.788 602.518 448.413 602.125 447.033 601.737C442.142 600.361 437.21 599.057 432.239 597.824C431.609 597.668 430.978 597.512 430.346 597.358C430.065 597.29 429.971 597.031 430.064 596.582C430.156 596.133 430.31 595.723 430.526 595.353C442.306 575.13 454.747 554.977 467.844 534.914C468.084 534.546 468.434 534.18 468.893 533.818C469.352 533.456 469.764 533.32 470.127 533.412C471.885 533.86 473.639 534.313 475.387 534.774C477.783 535.406 481.179 536.313 485.543 537.54C489.901 538.767 492.897 539.657 494.569 540.154C495.36 540.39 496.151 540.627 496.94 540.866C497.273 540.966 497.38 541.245 497.261 541.699C497.141 542.154 496.941 542.559 496.662 542.914ZM444.887 585.083C448.092 585.914 451.278 586.771 454.445 587.656C457.185 583.627 459.954 579.603 462.754 575.583C459.425 574.647 456.075 573.738 452.705 572.859C450.07 576.93 447.465 581.005 444.887 585.083ZM468.435 549.099C466.173 552.441 463.929 555.786 461.705 559.134C465.265 560.071 468.803 561.038 472.317 562.036C474.681 558.733 477.064 555.433 479.468 552.136C475.815 551.093 472.137 550.08 468.435 549.099ZM463.788 533.906C450.995 554.059 438.844 574.294 427.34 594.592C427.13 594.964 426.829 595.339 426.439 595.718C426.049 596.095 425.721 596.253 425.453 596.191C423.736 595.79 422.014 595.398 420.287 595.014C420.003 594.951 419.898 594.693 419.97 594.243C420.043 593.792 420.179 593.379 420.378 593.005C426.13 582.205 432.055 571.419 438.151 560.648C431.121 568.812 424.414 577.052 418.019 585.358C417.738 585.717 417.367 586.08 416.91 586.45C416.453 586.819 416.078 586.974 415.783 586.913C415.43 586.84 415.076 586.767 414.722 586.694C414.441 586.637 414.281 586.371 414.238 585.899C414.195 585.426 414.222 584.991 414.32 584.595C416.7 575.451 418.966 566.275 421.097 557.066C415.732 568.016 410.518 578.975 405.458 589.938C405.283 590.318 405.021 590.706 404.673 591.102C404.326 591.497 404.008 591.667 403.719 591.613C401.961 591.281 400.198 590.958 398.431 590.644C398.155 590.595 398.028 590.343 398.051 589.888C398.073 589.432 398.166 589.013 398.329 588.631C407.285 567.725 416.755 546.828 426.737 525.951C426.92 525.568 427.222 525.182 427.645 524.795C428.067 524.409 428.459 524.248 428.818 524.315C431.34 524.788 433.853 525.274 436.36 525.773C436.735 525.847 436.972 526.129 437.071 526.617C437.168 527.105 437.173 527.55 437.087 527.952C434.587 538.673 431.896 549.347 429.041 559.975C436.839 550.391 445.065 540.903 453.733 531.527C454.045 531.174 454.481 530.824 455.042 530.479C455.602 530.135 456.067 530.005 456.436 530.09C458.892 530.658 461.34 531.239 463.778 531.832C464.143 531.922 464.295 532.198 464.233 532.659C464.172 533.121 464.022 533.537 463.788 533.906ZM397.457 588.477C397.339 588.868 397.142 589.269 396.866 589.68C396.59 590.089 396.307 590.27 396.015 590.22C394.178 589.902 392.337 589.592 390.491 589.292C390.212 589.247 390.051 588.992 390.007 588.529C389.962 588.064 389.984 587.634 390.075 587.24C390.67 584.894 391.261 582.545 391.849 580.195C389.176 579.769 386.494 579.36 383.804 578.971C382.667 581.239 381.544 583.509 380.435 585.781C380.241 586.16 379.964 586.552 379.607 586.956C379.25 587.359 378.925 587.541 378.629 587.5C376.764 587.238 374.896 586.987 373.024 586.745C372.741 586.708 372.616 586.465 372.649 586.017C372.68 585.568 372.78 585.151 372.947 584.767C382.417 563.842 393.014 543.018 404.853 522.355C405.062 521.974 405.391 521.588 405.84 521.195C406.289 520.804 406.707 520.637 407.092 520.696C409.503 521.07 411.908 521.455 414.307 521.852C414.689 521.915 414.927 522.186 415.018 522.664C415.108 523.142 415.098 523.58 414.988 523.975C409.463 545.601 403.575 567.099 397.457 588.477ZM391.122 564.712C392.584 564.932 394.044 565.157 395.5 565.387C396.769 560.181 398.02 554.969 399.25 549.749C396.47 554.728 393.761 559.716 391.122 564.712ZM371.966 584.643C371.846 585.032 371.639 585.436 371.349 585.852C371.058 586.267 370.764 586.457 370.467 586.42C370.191 586.386 369.915 586.351 369.64 586.317C369.628 586.332 369.616 586.346 369.604 586.36C367.734 586.129 365.861 585.909 363.985 585.697C363.686 585.664 363.469 585.413 363.334 584.947C363.197 584.481 363.137 584.046 363.153 583.644C363.756 570.784 364.027 557.871 363.918 544.904C360.768 557.533 357.717 570.143 354.767 582.734C354.675 583.128 354.498 583.538 354.237 583.963C353.976 584.387 353.696 584.586 353.395 584.558C351.565 584.387 349.733 584.224 347.898 584.071C347.61 584.047 347.429 583.807 347.352 583.352C347.275 582.897 347.276 582.471 347.356 582.076C351.733 560.442 356.365 538.744 361.252 516.986C361.341 516.586 361.549 516.173 361.877 515.748C362.204 515.324 362.557 515.127 362.932 515.162C365.836 515.43 368.734 515.715 371.626 516.016C372.019 516.057 372.324 516.318 372.54 516.796C372.755 517.275 372.867 517.72 372.878 518.129C373.08 530.979 372.895 543.774 372.369 556.515C375.964 544.136 379.673 531.743 383.498 519.339C383.619 518.944 383.86 518.539 384.221 518.126C384.581 517.713 384.948 517.529 385.319 517.575C387.679 517.866 390.034 518.168 392.385 518.482C392.774 518.534 392.995 518.794 393.047 519.259C393.099 519.725 393.057 520.154 392.922 520.547C385.554 541.94 378.568 563.308 371.966 584.643ZM328.963 526.119C328.899 526.709 328.71 527.168 328.399 527.497C328.086 527.826 327.808 527.984 327.562 527.973C324.08 527.817 320.594 527.686 317.104 527.58C315.964 545.213 314.869 562.784 313.819 580.296C313.795 580.696 313.684 581.118 313.489 581.561C313.294 582.003 313.051 582.221 312.76 582.215C310.897 582.173 309.032 582.14 307.166 582.117C306.859 582.113 306.632 581.886 306.483 581.438C306.335 580.988 306.265 580.563 306.276 580.163C306.772 562.625 307.285 545.023 307.815 527.359C304.313 527.297 300.808 527.262 297.3 527.252C297.051 527.251 296.787 527.079 296.505 526.734C296.223 526.39 296.077 525.922 296.069 525.328C296.017 521.529 295.965 517.727 295.911 513.923C295.902 513.296 296.041 512.818 296.33 512.49C296.618 512.162 296.895 511.999 297.158 512C302.504 512.025 307.844 512.105 313.175 512.242C318.51 512.378 323.837 512.571 329.151 512.819C329.411 512.831 329.669 513.008 329.925 513.348C330.179 513.689 330.271 514.17 330.202 514.793C329.786 518.57 329.372 522.346 328.963 526.119ZM292.384 582.118C291.691 582.126 290.997 582.136 290.303 582.148C283.31 582.261 276.309 582.5 269.311 582.865C269.111 582.876 268.876 582.717 268.608 582.389C268.339 582.061 268.166 581.604 268.087 581.018C267.354 575.486 266.609 569.947 265.851 564.401C265.796 563.999 265.825 563.567 265.94 563.109C266.055 562.65 266.281 562.412 266.617 562.395C268.658 562.294 270.7 562.202 272.742 562.12C273.077 562.107 273.358 562.322 273.581 562.765C273.804 563.208 273.936 563.632 273.977 564.034C274.097 565.182 274.215 566.329 274.333 567.476C277.865 567.338 281.398 567.23 284.929 567.152C284.687 563.105 284.443 559.054 284.194 555C278.778 555.112 273.36 555.291 267.941 555.538C267.165 555.573 266.387 555.61 265.611 555.648C265.265 555.665 264.972 555.454 264.727 555.012C264.483 554.571 264.332 554.148 264.276 553.744C262.472 540.826 260.602 527.87 258.664 514.874C258.604 514.467 258.645 514.03 258.79 513.566C258.936 513.101 259.212 512.86 259.618 512.841C261.659 512.751 263.7 512.669 265.74 512.594C271.847 512.372 277.954 512.223 284.056 512.146C284.106 512.145 284.157 512.145 284.208 512.144C286.173 512.12 288.137 512.104 290.101 512.094C290.485 512.093 290.797 512.319 291.034 512.307C291.27 513.227 291.393 513.658 291.406 514.064C291.577 519.718 291.746 525.366 291.911 531.005C291.923 531.412 291.831 531.842 291.639 532.295C291.446 532.75 291.172 532.977 290.816 532.98C288.539 532.995 286.26 533.022 283.981 533.06C283.606 533.066 283.306 532.845 283.08 532.396C282.854 531.946 282.728 531.518 282.702 531.112C282.624 529.893 282.546 528.674 282.467 527.455C278.307 527.528 274.145 527.636 269.982 527.781C270.439 531.908 270.892 536.031 271.339 540.15C274.24 540.045 277.142 539.959 280.043 539.89C282.887 539.823 285.731 539.773 288.574 539.741C289.396 539.732 290.218 539.724 291.04 539.718C291.388 539.715 291.669 539.939 291.883 540.39C292.097 540.84 292.209 541.268 292.22 541.673C292.59 554.538 292.943 567.367 293.28 580.16C293.291 580.561 293.216 580.987 293.059 581.437C292.901 581.887 292.676 582.113 292.384 582.118ZM261.521 568.109C261.734 568.097 261.986 568.246 262.274 568.557C262.561 568.868 262.751 569.334 262.844 569.952C263.411 573.711 263.971 577.467 264.525 581.219C264.611 581.805 264.567 582.275 264.393 582.628C264.219 582.981 264.032 583.164 263.832 583.176C261.67 583.309 259.509 583.455 257.348 583.612C255.195 583.768 253.042 583.937 250.891 584.117C250.69 584.134 250.443 583.982 250.148 583.663C249.853 583.343 249.643 582.891 249.519 582.306C248.727 578.564 247.926 574.819 247.116 571.071C246.983 570.453 246.999 569.972 247.167 569.628C247.335 569.284 247.526 569.103 247.74 569.086C248.701 569.007 249.662 568.931 250.624 568.856C247.979 555.669 245.234 542.44 242.387 529.171C241.264 529.253 240.141 529.338 239.018 529.424C238.769 529.444 238.466 529.294 238.108 528.972C237.75 528.651 237.502 528.194 237.363 527.602C236.482 523.81 235.591 520.016 234.691 516.218C234.543 515.593 234.575 515.105 234.792 514.753C235.008 514.402 235.249 514.217 235.514 514.196C238.346 513.981 241.179 513.782 244.014 513.598C246.857 513.414 249.702 513.246 252.547 513.093C252.81 513.079 253.118 513.229 253.468 513.543C253.817 513.856 254.043 514.327 254.147 514.954C254.777 518.762 255.401 522.566 256.018 526.367C256.115 526.962 256.05 527.438 255.828 527.797C255.605 528.156 255.369 528.342 255.12 528.356C253.996 528.418 252.873 528.483 251.749 528.55C254.13 541.837 256.426 555.083 258.636 568.288C259.597 568.226 260.559 568.167 261.521 568.109ZM246.087 583.857C246.026 584.318 245.842 584.562 245.534 584.591C245.249 584.618 244.963 584.645 244.679 584.672C244.674 584.688 244.67 584.704 244.666 584.72C242.732 584.903 240.799 585.096 238.867 585.298C238.559 585.33 238.217 585.138 237.837 584.721C237.458 584.304 237.168 583.901 236.969 583.513C230.702 571.066 223.845 558.641 216.354 546.253C220.499 559.022 224.497 571.755 228.351 584.452C228.472 584.849 228.518 585.28 228.491 585.743C228.463 586.205 228.297 586.456 227.99 586.494C226.124 586.726 224.259 586.966 222.396 587.215C222.105 587.254 221.801 587.064 221.484 586.645C221.167 586.226 220.941 585.818 220.808 585.422C213.508 563.746 205.737 541.967 197.491 520.089C197.339 519.687 197.293 519.247 197.356 518.768C197.419 518.29 197.642 518.026 198.026 517.977C200.994 517.604 203.965 517.247 206.939 516.908C207.343 516.862 207.794 517.045 208.288 517.457C208.782 517.869 209.156 518.271 209.41 518.661C217.26 530.924 224.471 543.224 231.089 555.547C227.646 542.907 224.08 530.229 220.39 517.516C220.273 517.111 220.264 516.671 220.366 516.196C220.467 515.722 220.712 515.465 221.097 515.429C223.55 515.196 226.005 514.974 228.461 514.765C228.867 514.73 229.235 514.931 229.563 515.366C229.892 515.802 230.106 516.222 230.209 516.628C235.811 538.719 241.088 560.698 246.043 582.566C246.134 582.966 246.148 583.396 246.087 583.857ZM217.53 587.193C217.516 587.657 217.365 587.911 217.074 587.953C215.535 588.173 213.999 588.4 212.463 588.633C210.629 588.912 207.519 589.388 203.152 590.124C198.782 590.862 195.721 591.426 193.948 591.754C193.266 591.881 192.584 592.008 191.903 592.138C191.6 592.195 191.267 592.021 190.902 591.618C190.537 591.214 190.261 590.817 190.075 590.428C179.922 569.126 169.118 547.743 157.656 526.289C157.445 525.895 157.326 525.459 157.299 524.98C157.272 524.502 157.458 524.225 157.857 524.153C159.789 523.801 161.723 523.457 163.66 523.121C166.055 522.706 170.139 522.003 175.938 521.095C181.733 520.19 185.853 519.61 188.269 519.272C189.175 519.145 190.082 519.021 190.988 518.898C191.371 518.846 191.763 519.03 192.162 519.448C192.561 519.866 192.838 520.277 192.997 520.678C201.606 542.517 209.719 564.259 217.342 585.902C217.481 586.297 217.543 586.727 217.53 587.193ZM188.827 535.092C183.753 535.847 178.692 536.657 173.649 537.521C179.921 550.464 185.972 563.378 191.802 576.261C196.118 575.503 200.449 574.791 204.792 574.125C199.665 561.148 194.344 548.137 188.827 535.092ZM159.588 539.528C159.496 539.913 159.328 540.128 159.084 540.175C157.986 540.388 156.889 540.602 155.793 540.82C162.952 553.621 169.86 566.398 176.516 579.15C177.455 578.96 178.394 578.772 179.334 578.587C179.543 578.545 179.844 578.659 180.236 578.928C180.627 579.196 180.973 579.631 181.274 580.229C183.103 583.866 184.911 587.5 186.7 591.133C186.98 591.7 187.089 592.17 187.032 592.543C186.975 592.914 186.849 593.12 186.652 593.159C184.54 593.58 182.431 594.014 180.326 594.459C178.228 594.903 176.135 595.358 174.047 595.826C173.852 595.869 173.556 595.752 173.157 595.477C172.758 595.2 172.4 594.782 172.084 594.221C170.064 590.63 168.022 587.038 165.958 583.444C165.618 582.852 165.473 582.375 165.525 582.013C165.577 581.65 165.707 581.446 165.914 581.4C166.847 581.193 167.78 580.988 168.714 580.786C161.636 568.109 154.293 555.411 146.681 542.692C145.591 542.924 144.501 543.158 143.412 543.395C143.17 543.448 142.814 543.34 142.341 543.07C141.869 542.801 141.457 542.384 141.106 541.817C138.858 538.191 136.588 534.563 134.296 530.935C133.918 530.337 133.772 529.85 133.858 529.474C133.945 529.098 134.117 528.882 134.372 528.827C137.117 528.233 139.869 527.655 142.628 527.091C145.395 526.527 148.169 525.978 150.949 525.444C151.207 525.395 151.569 525.501 152.033 525.764C152.497 526.027 152.896 526.462 153.23 527.067C155.261 530.744 157.271 534.418 159.262 538.09C159.573 538.665 159.681 539.144 159.588 539.528ZM169.168 596.214C169.258 596.677 169.154 596.944 168.856 597.013C168.58 597.078 168.304 597.143 168.028 597.208C168.029 597.225 168.03 597.241 168.032 597.257C166.161 597.698 164.294 598.148 162.432 598.608C162.135 598.681 161.73 598.537 161.216 598.177C160.701 597.816 160.279 597.456 159.954 597.099C149.619 585.642 138.57 574.287 126.77 563.063C135.364 575.112 143.659 587.155 151.658 599.187C151.908 599.563 152.095 599.982 152.219 600.444C152.342 600.905 152.257 601.175 151.963 601.253C150.176 601.733 148.392 602.222 146.614 602.719C146.335 602.797 145.97 602.65 145.518 602.279C145.064 601.907 144.706 601.534 144.444 601.161C130.081 580.712 114.806 560.241 98.6109 539.769C98.3134 539.393 98.1072 538.964 97.9945 538.483C97.8823 538.003 98.0084 537.712 98.3737 537.613C101.196 536.843 104.029 536.091 106.871 535.355C107.258 535.255 107.775 535.375 108.419 535.715C109.062 536.055 109.582 536.402 109.978 536.752C122.288 547.797 133.849 558.976 144.695 570.262C136.907 558.235 128.846 546.194 120.511 534.142C120.245 533.758 120.075 533.325 120.002 532.842C119.929 532.36 120.078 532.074 120.449 531.986C122.81 531.425 125.177 530.876 127.549 530.338C127.941 530.249 128.382 530.398 128.869 530.783C129.357 531.169 129.726 531.556 129.978 531.943C143.665 552.991 156.57 573.996 168.701 594.945C168.922 595.327 169.078 595.751 169.168 596.214ZM141.77 603.346C141.906 603.807 141.83 604.081 141.539 604.165C139.477 604.764 137.422 605.375 135.373 605.997C130.166 607.58 125.005 609.238 119.892 610.972C119.622 611.063 119.238 610.934 118.74 610.585C118.242 610.235 117.839 609.88 117.532 609.519C100.716 589.754 82.8396 570.015 63.8971 550.333C63.5491 549.971 63.2807 549.554 63.0953 549.082C62.9104 548.61 62.9945 548.314 63.3479 548.196C65.6075 547.444 67.8751 546.703 70.151 545.973C70.5257 545.853 71.0047 545.965 71.586 546.308C72.1674 546.65 72.6153 547.008 72.9321 547.38C87.5353 563.323 101.478 579.292 114.763 595.272C118.076 594.201 121.409 593.159 124.759 592.147C112.182 575.967 98.9812 559.786 85.1526 543.618C84.8535 543.241 84.6257 542.815 84.4694 542.342C84.3142 541.869 84.4161 541.578 84.7774 541.471C87.084 540.79 89.398 540.121 91.7194 539.463C92.1015 539.354 92.5642 539.481 93.105 539.843C93.6458 540.205 94.068 540.574 94.3715 540.949C110.904 561.333 126.498 581.723 141.161 602.095C141.429 602.468 141.631 602.885 141.77 603.346Z" fill="white"/>
</svg>
